<?xml version="1.0" standalone="no"?>
<!DOCTYPE svg PUBLIC "-//W3C//DTD SVG 20010904//EN"
 "http://www.w3.org/TR/2001/REC-SVG-20010904/DTD/svg10.dtd">
<svg version="1.0" xmlns="http://www.w3.org/2000/svg"
 width="928.000000pt" height="928.000000pt" viewBox="0 0 928.000000 928.000000"
 preserveAspectRatio="xMidYMid meet">
<metadata>
Created by potrace 1.14, written by Peter Selinger 2001-2017
</metadata>
<g transform="translate(0.000000,928.000000) scale(0.100000,-0.100000)"
fill="#000000" stroke="none">
<path d="M942 9160 c2 -66 6 -120 9 -120 3 0 9 -66 13 -147 3 -80 10 -151 14
-157 5 -6 9 -24 11 -41 8 -99 49 -294 69 -328 9 -16 34 -37 55 -47 20 -10 35
-14 31 -9 -3 5 -1 9 5 9 19 0 21 -19 3 -37 -10 -10 -33 -38 -52 -63 -19 -25
-37 -47 -40 -50 -8 -8 -45 -63 -54 -80 -9 -17 15 9 59 66 128 164 420 471 585
614 41 36 80 70 86 76 6 5 35 30 65 55 29 24 69 58 88 75 144 124 316 252 273
202 -52 -59 -268 -273 -352 -349 -152 -136 -413 -404 -503 -518 -16 -20 -59
-70 -97 -111 -190 -210 -218 -250 -174 -250 8 0 14 -4 14 -10 0 -5 -5 -10 -11
-10 -6 0 -8 -12 -5 -32 5 -25 4 -28 -3 -13 -9 18 -10 17 -10 -7 -1 -16 -7 -28
-13 -28 -9 0 -10 -3 -2 -8 8 -5 8 -50 1 -157 -11 -156 3 -389 23 -409 6 -6 10
-29 10 -53 0 -24 3 -43 8 -43 4 0 12 -10 17 -22 6 -14 21 -24 38 -26 27 -3 35
-16 18 -26 -5 -3 -12 -18 -15 -33 -8 -31 -46 -133 -76 -203 -33 -76 -72 -186
-62 -175 5 6 24 47 41 92 17 46 42 106 55 135 13 29 45 100 71 158 94 211 418
831 463 885 13 17 92 164 92 172 0 4 -4 1 -10 -7 -5 -8 -11 -12 -14 -9 -10 10
204 406 363 672 13 20 18 37 12 37 -6 0 -11 -5 -11 -11 0 -6 -33 -65 -73 -132
-122 -203 -157 -263 -157 -271 0 -4 -14 -27 -31 -52 -17 -25 -44 -70 -61 -102
-87 -162 -129 -241 -147 -279 -22 -48 -35 -56 -25 -17 6 22 4 25 -7 19 -11 -7
-11 -5 1 10 9 11 10 16 3 11 -9 -5 -13 0 -13 18 0 14 -5 28 -10 31 -6 4 -10
12 -9 18 3 24 -1 37 -11 37 -5 0 -10 -7 -10 -15 0 -8 -5 -15 -11 -15 -7 0 -9
15 -5 43 6 38 6 40 -7 19 l-13 -23 -19 21 c-16 18 -16 20 -2 20 10 0 17 5 17
10 0 6 -4 10 -8 10 -5 0 -19 9 -32 20 -28 25 -56 26 -69 3 -9 -17 -10 -17 -28
0 -15 13 -22 14 -32 4 -21 -20 -9 24 12 45 23 24 29 23 21 -7 -6 -25 8 -35 21
-15 3 6 3 10 -2 10 -4 0 -8 14 -9 30 -1 31 10 40 20 18 3 -7 4 -4 1 8 -4 15 5
30 30 53 19 17 35 36 35 42 0 6 7 8 17 5 10 -4 14 -4 10 0 -9 10 43 65 55 58
4 -3 8 2 8 10 0 8 12 28 26 43 23 26 25 26 19 6 -5 -18 -2 -23 12 -23 30 0 41
13 48 54 6 28 5 37 -4 32 -6 -4 -9 -11 -6 -16 7 -12 -12 -60 -24 -60 -18 0 18
81 48 109 25 23 31 25 34 12 3 -9 5 -6 6 8 1 26 19 45 220 231 140 130 314
317 308 333 -8 26 -19 19 -267 -180 -163 -130 -172 -135 -150 -78 7 17 7 24 0
20 -13 -8 -13 51 0 75 7 13 7 21 0 25 -5 3 -10 21 -10 40 0 19 -4 37 -10 40
-5 3 -10 19 -10 34 0 15 -12 46 -27 69 l-27 42 -369 0 -368 0 3 -120z m804
-277 c-8 -8 -36 5 -36 17 0 7 6 7 21 0 11 -7 18 -14 15 -17z m-21 -13 c3 -5
-1 -10 -9 -10 -9 0 -16 5 -16 10 0 6 4 10 9 10 6 0 13 -4 16 -10z m-25 -24 c0
-3 -4 -8 -10 -11 -5 -3 -10 -1 -10 4 0 6 5 11 10 11 6 0 10 -2 10 -4z m-459
-663 c-12 -20 -14 -14 -5 12 4 9 9 14 11 11 3 -2 0 -13 -6 -23z m-166 -214
c-8 -12 -45 -12 -45 0 0 10 30 20 43 14 4 -3 5 -9 2 -14z"/>
<path d="M2228 9255 c-15 -14 -32 -25 -38 -25 -5 0 -10 -4 -10 -10 0 -17 28
-11 42 8 7 10 24 26 38 35 15 11 19 17 10 17 -9 0 -27 -11 -42 -25z"/>
<path d="M2320 9269 c0 -5 5 -7 10 -4 6 3 10 8 10 11 0 2 -4 4 -10 4 -5 0 -10
-5 -10 -11z"/>
<path d="M2270 9194 c-23 -30 -40 -57 -37 -60 2 -2 23 23 46 56 53 76 47 78
-9 4z"/>
<path d="M2192 9078 c-37 -56 -88 -146 -74 -133 14 13 113 175 108 175 -3 0
-18 -19 -34 -42z"/>
<path d="M3093 8903 c-105 -167 -305 -551 -432 -826 -44 -98 -81 -181 -81
-186 0 -4 -7 -21 -15 -38 -8 -16 -33 -76 -54 -134 -22 -57 -40 -98 -41 -92 -1
30 81 369 141 582 16 57 28 105 26 107 -4 5 -88 -268 -116 -376 -30 -120 -119
-543 -157 -750 -51 -274 -84 -599 -84 -823 0 -323 40 -687 91 -821 22 -58 19
-68 -7 -29 -69 102 -98 222 -152 613 -32 237 -16 1015 24 1125 5 14 4 17 -4
10 -6 -5 -27 -48 -47 -95 -23 -57 -29 -77 -16 -60 11 14 21 23 24 20 2 -3 0
-48 -6 -100 -5 -52 -9 -250 -10 -440 -1 -305 1 -364 21 -510 28 -208 47 -315
74 -410 12 -41 22 -82 23 -90 1 -8 6 -25 13 -36 6 -12 14 -48 18 -80 3 -33 12
-74 20 -93 14 -33 36 -164 48 -277 5 -51 5 -52 -26 -58 -17 -3 -51 -6 -75 -6
-39 0 -43 2 -30 15 8 8 20 43 26 78 14 79 14 97 1 97 -5 0 -10 -9 -10 -19 0
-23 -19 -76 -25 -70 -2 2 3 31 11 64 23 98 14 117 -12 25 -13 -47 -29 -107
-36 -135 -8 -37 -13 -45 -18 -30 -3 11 -12 34 -19 50 -7 17 -20 45 -28 64 -9
22 -17 31 -24 24 -15 -15 -11 -498 6 -727 8 -110 13 -201 11 -203 -2 -3 -31
91 -61 202 -30 109 -106 494 -121 610 -3 28 -8 162 -10 299 -2 137 -6 251 -8
253 -2 3 -7 -35 -11 -84 -9 -105 0 -400 15 -498 49 -313 78 -459 135 -669 149
-556 350 -811 725 -926 92 -27 206 -24 284 10 68 29 79 22 74 -45 -1 -30 0
-55 3 -55 3 0 4 -11 1 -25 -3 -19 -9 -24 -21 -20 -13 4 -22 -5 -35 -32 -15
-32 -19 -35 -27 -20 -6 9 -22 17 -37 17 -30 1 -62 21 -62 39 0 6 -7 11 -16 11
-13 0 -15 -5 -9 -22 4 -13 7 -44 6 -70 -1 -33 2 -48 11 -49 7 0 25 -2 40 -4
15 -2 30 1 33 6 10 16 35 10 36 -8 0 -13 3 -11 11 7 10 24 12 22 19 -24 6 -37
4 -54 -8 -72 -8 -13 -19 -21 -24 -18 -5 3 -9 -2 -9 -11 0 -26 29 -29 54 -6 29
27 32 27 41 -6 4 -16 15 -36 26 -46 20 -19 26 -77 8 -77 -6 0 -30 16 -54 36
-30 24 -42 41 -38 52 3 12 2 13 -4 4 -11 -15 -133 123 -173 196 -50 91 -74
163 -62 182 9 16 2 18 -96 23 -173 11 -247 39 -300 117 -49 71 -113 140 -131
140 -10 0 -3 -13 20 -37 99 -104 169 -243 196 -386 21 -113 14 -302 -14 -374
-12 -29 -17 -53 -13 -53 58 0 170 171 170 258 l0 26 20 -21 c13 -14 26 -19 41
-16 23 6 93 107 86 126 -2 7 -12 -5 -22 -26 -19 -41 -71 -90 -89 -84 -6 2 -18
30 -27 63 -20 73 -38 118 -44 112 -3 -3 2 -24 10 -48 8 -23 15 -57 15 -74 0
-75 -56 -210 -106 -257 l-23 -21 14 53 c29 107 14 324 -30 453 -14 39 -23 71
-21 73 1 2 23 -4 47 -12 24 -9 92 -21 150 -27 l106 -11 48 -104 c64 -138 148
-247 270 -351 l50 -42 -25 -20 c-26 -21 -201 -137 -485 -322 -256 -166 -365
-287 -499 -555 -52 -105 -127 -316 -141 -398 -4 -22 -18 -83 -31 -136 -34
-137 -34 -281 0 -454 28 -140 31 -182 16 -205 -5 -8 -10 -10 -10 -5 0 6 -5 3
-10 -5 -5 -9 -42 -38 -82 -65 -40 -28 -74 -53 -76 -57 -2 -5 -9 -8 -16 -8 -26
0 -66 -59 -66 -96 0 -22 -4 -33 -10 -29 -7 4 -11 -9 -10 -37 0 -23 -3 -140 -6
-258 -5 -174 -9 -218 -22 -232 -14 -17 57 -18 1482 -18 l1497 0 -3 22 c-2 13
-16 29 -33 38 -33 17 -60 40 -60 51 0 16 -17 23 -24 10 -6 -9 -11 -10 -15 -2
-4 6 -2 11 5 11 8 0 8 4 -2 16 -10 12 -10 17 0 23 9 6 6 12 -11 23 -27 18 -55
43 -120 104 -36 34 -45 48 -40 66 5 21 4 22 -12 9 -9 -8 -19 -11 -23 -7 -3 3
-1 6 5 6 7 0 12 5 12 10 0 6 -8 10 -18 10 -10 0 -23 13 -31 31 -17 38 -60 79
-83 79 -10 0 -18 4 -18 10 0 5 -7 7 -15 4 -8 -4 -15 -1 -15 5 0 6 5 11 10 11
6 0 10 5 10 10 0 6 -19 10 -42 10 -30 0 -39 3 -29 9 11 7 6 14 -25 28 -21 10
-46 26 -55 35 -9 10 -29 18 -43 18 -17 0 -39 11 -58 30 -18 18 -40 30 -56 30
-21 0 -24 2 -12 10 12 8 11 10 -6 10 -12 0 -24 7 -28 15 -3 8 -16 15 -28 15
-13 0 -29 9 -36 20 -7 12 -23 20 -38 20 -19 0 -25 4 -20 15 4 11 -3 17 -25 22
-17 3 -33 12 -36 19 -3 8 -20 14 -42 14 -20 0 -42 5 -49 12 -7 7 -12 8 -12 4
0 -5 -9 3 -21 18 -11 14 -25 24 -29 21 -11 -7 -33 32 -26 44 3 5 3 23 -1 41
l-6 32 -13 -28 c-11 -27 -13 -21 -15 61 l-3 90 -5 -75 c-6 -74 -6 -73 -16 65
-12 169 -9 433 5 570 37 340 163 773 287 978 104 172 313 372 468 447 92 45
144 58 270 70 l90 9 -107 -4 c-60 -3 -127 -12 -155 -21 -67 -22 -169 -73 -184
-90 -6 -8 -16 -14 -22 -14 -36 0 -354 -317 -425 -422 -22 -34 -53 -56 -36 -26
4 7 3 9 -2 5 -4 -4 -9 -18 -9 -30 0 -12 -5 -21 -11 -20 -6 1 -11 -3 -12 -10 0
-7 -4 -22 -7 -35 -6 -18 -4 -21 9 -16 9 3 16 11 16 16 0 6 11 23 25 40 31 37
31 34 -1 -38 -36 -82 -39 -90 -69 -174 -30 -85 -64 -200 -91 -310 -16 -62 -20
-69 -22 -42 -2 17 -8 32 -14 32 -6 0 -8 -11 -3 -28 6 -24 5 -25 -7 -10 -11 16
-18 16 -50 6 -27 -8 -38 -17 -38 -31 0 -15 3 -17 13 -9 10 8 13 6 14 -8 1 -15
-7 -21 -35 -25 -56 -10 -112 -38 -112 -57 0 -10 -9 -22 -20 -28 -15 -8 -20 -8
-20 1 0 8 -4 9 -13 0 -8 -6 -16 -10 -18 -8 -2 1 4 -7 15 -17 15 -16 16 -20 4
-27 -8 -4 -31 -9 -51 -11 -21 -1 -37 -6 -37 -12 0 -5 -3 -6 -7 -2 -4 3 -12 -3
-19 -15 -7 -14 -14 -18 -18 -10 -4 6 -2 11 4 11 6 0 8 5 5 10 -3 6 -1 10 4 10
6 0 11 7 11 15 0 8 8 23 18 33 10 10 28 38 40 62 19 38 108 169 140 206 5 6
30 37 55 70 24 32 83 103 131 157 85 97 101 122 71 111 -8 -3 -17 0 -20 8 -9
22 114 252 193 366 40 56 76 110 79 120 10 27 -44 -26 -80 -78 -16 -25 -41
-57 -54 -72 -14 -14 -25 -30 -24 -35 0 -4 -10 -19 -21 -33 -12 -14 -21 -26
-20 -27 0 -2 -17 -40 -38 -86 -22 -46 -40 -89 -40 -95 0 -6 -5 -14 -10 -17
-11 -7 -5 134 10 230 4 28 6 53 3 57 -4 7 -41 -9 -53 -23 -3 -3 -54 -36 -115
-73 -218 -135 -580 -372 -617 -404 -10 -8 -24 -12 -32 -9 -10 4 -13 1 -9 -9 3
-9 -1 -14 -12 -14 -9 0 -14 4 -10 9 3 5 1 12 -4 16 -6 3 -8 -3 -6 -15 4 -21
-31 -53 -48 -43 -6 3 -7 2 -4 -4 6 -10 -44 -53 -62 -53 -6 0 -14 -6 -18 -13
-4 -8 -43 -39 -85 -70 -42 -31 -80 -61 -83 -67 -4 -6 -11 -7 -17 -4 -7 4 -8 2
-4 -4 4 -7 3 -12 -3 -12 -5 0 -31 -28 -58 -63 -26 -34 -51 -63 -55 -65 -4 -2
-8 -8 -8 -13 0 -4 -22 -43 -50 -85 -27 -42 -50 -80 -50 -85 0 -5 -5 -9 -10 -9
-7 0 -7 6 -2 18 5 9 27 69 47 132 52 159 82 220 166 345 78 116 178 221 274
289 75 53 166 105 191 109 10 2 30 9 44 14 156 65 201 83 210 83 7 0 26 6 43
14 18 8 82 30 142 49 96 31 210 72 297 105 27 11 44 29 35 38 -2 3 -47 -11
-98 -31 -150 -58 -163 -62 -176 -58 -7 3 -13 0 -13 -5 0 -6 -26 -18 -57 -27
-32 -9 -67 -20 -78 -25 -24 -11 -134 -42 -155 -44 -9 -1 -21 -6 -28 -10 -7 -4
-15 -6 -18 -3 -3 2 29 28 71 56 41 28 75 48 75 44 0 -5 4 -3 8 2 16 23 65 54
76 48 6 -3 8 -3 4 2 -11 11 51 55 78 55 12 0 25 -6 27 -12 3 -8 6 -4 7 7 1 11
3 25 4 32 2 17 54 55 66 48 6 -4 9 -2 8 3 -3 9 90 80 357 272 147 106 462 349
575 444 248 207 650 641 709 766 12 24 11 24 -3 5 -96 -122 -172 -215 -178
-215 -10 0 211 504 327 740 19 41 33 75 31 77 -3 4 -19 -27 -131 -262 -63
-131 -88 -186 -160 -347 -21 -48 -40 -86 -42 -84 -2 2 0 23 6 47 23 107 32
161 28 166 -3 2 -15 -40 -26 -94 -64 -297 -58 -279 -121 -352 -32 -36 -78 -86
-103 -109 l-45 -44 -48 59 c-124 152 -185 234 -179 243 4 6 61 38 128 71 143
71 306 162 307 170 0 3 -87 -38 -193 -90 -265 -132 -491 -203 -801 -251 -147
-24 -210 -23 -251 4 -13 9 -51 51 -82 94 -105 141 -176 226 -297 352 -220 231
-319 359 -392 514 -82 174 -121 368 -125 626 -1 69 -6 170 -11 225 -10 118
-71 527 -97 658 -10 51 -17 96 -14 100 9 15 33 -16 28 -34 -5 -14 -1 -19 13
-19 20 0 40 -38 112 -217 19 -46 35 -81 37 -80 2 2 -6 44 -17 93 -24 111 -27
236 -5 254 9 7 38 15 65 18 l50 5 0 -44 c0 -86 57 -318 106 -434 11 -26 14
-27 20 -12 3 10 2 28 -4 40 -6 12 -15 37 -21 55 -8 26 -7 32 4 32 8 0 12 -6 9
-14 -5 -14 20 -46 36 -46 6 0 5 11 0 26 -16 41 -13 134 5 140 8 4 15 10 15 16
0 5 -5 6 -12 2 -8 -5 -9 0 -6 14 5 17 2 22 -12 22 -25 0 -35 32 -14 47 21 15
53 -3 47 -27 -5 -19 27 -32 62 -25 11 2 22 4 25 4 3 1 -1 5 -9 10 -10 6 -2 11
27 16 50 8 56 5 89 -47 34 -54 39 -103 11 -105 -30 -3 -31 -7 -13 -49 12 -28
15 -63 13 -126 -2 -47 0 -89 3 -93 4 -3 15 26 24 66 14 58 17 95 12 188 -6
112 -8 119 -52 207 -46 91 -57 104 -225 265 -31 30 -56 47 -58 40 -3 -8 -9 -5
-19 8 -8 12 -22 21 -32 21 -32 0 -110 59 -147 110 -44 62 -56 59 -19 -5 30
-50 28 -56 -21 -73 -42 -13 -176 14 -195 41 -3 5 -12 52 -19 106 l-13 98 54
69 c135 176 394 491 481 588 l37 41 1 -160 c1 -88 9 -248 19 -355 11 -107 18
-196 17 -197 -2 -2 -36 8 -76 22 -40 14 -76 25 -79 25 -13 -1 66 -38 95 -44
36 -8 74 -40 74 -62 0 -11 -26 -1 -96 36 -52 29 -97 50 -99 48 -2 -2 42 -30
97 -64 l100 -60 28 -105 c15 -57 35 -121 44 -141 9 -22 12 -38 6 -38 -5 0 -10
4 -10 10 0 13 -143 126 -191 150 -55 28 -72 24 -21 -5 136 -78 236 -181 280
-290 72 -177 85 -206 89 -201 2 2 -3 21 -12 42 -22 51 -65 185 -65 202 0 7 5
10 11 6 6 -3 4 4 -4 17 -23 36 -56 155 -65 237 -5 39 -7 72 -5 72 2 0 19 -10
37 -22 30 -20 35 -29 41 -78 25 -208 96 -485 162 -635 34 -79 126 -215 144
-215 6 0 -2 15 -16 34 -14 18 -37 71 -50 117 -33 109 -68 259 -62 265 2 2 12
-17 22 -43 10 -27 31 -70 47 -98 35 -61 93 -129 84 -100 -95 341 -102 375
-116 590 -20 307 -9 693 24 896 18 105 45 220 55 232 4 4 13 -64 19 -150 13
-162 34 -353 53 -478 38 -253 131 -631 178 -724 26 -50 27 -65 15 -221 l-8
-115 -28 115 c-21 87 -28 135 -26 197 1 45 -1 85 -5 89 -4 4 -7 3 -7 -2 -3
-59 -22 -279 -30 -349 -10 -83 -6 -282 7 -330 3 -14 2 -17 -5 -10 -15 15 -51
136 -72 243 -20 104 -30 125 -30 66 0 -81 57 -267 115 -376 20 -37 41 -70 46
-74 6 -3 1 13 -12 37 -37 73 -49 382 -20 544 l7 40 13 -70 c26 -139 122 -365
156 -365 5 0 1 8 -8 18 -9 10 -29 44 -44 77 -27 57 -28 68 -30 218 -1 143 6
188 22 138 8 -27 110 -168 154 -214 39 -42 88 -71 139 -82 44 -9 41 1 -5 16
-77 24 -159 103 -200 189 -60 127 -129 375 -162 580 -38 237 -42 276 -49 530
-6 233 -7 245 -13 135 -19 -376 61 -901 176 -1161 40 -91 5 -48 -40 50 -169
364 -282 1040 -286 1714 -1 149 -4 201 -10 167 -4 -27 -8 -131 -7 -230 0 -161
-2 -185 -20 -227 -21 -47 -49 -181 -74 -348 -16 -111 -15 -746 1 -890 11 -99
59 -312 83 -373 6 -15 8 -30 4 -34 -8 -8 -78 143 -105 225 -42 130 -46 211
-22 420 4 34 4 62 0 62 -9 0 -20 -72 -29 -195 -4 -55 -8 -86 -9 -68 0 17 -5
35 -11 38 -13 8 -13 2 10 -90 11 -44 25 -116 31 -160 17 -125 38 -225 61 -288
11 -32 18 -60 16 -63 -7 -7 -73 141 -97 219 -12 37 -30 96 -41 131 -43 140
-75 333 -106 631 -8 83 -19 164 -24 180 -20 64 -41 215 -47 343 -3 73 -9 135
-13 137 -17 11 -17 -698 -1 -849 7 -59 10 -110 8 -113 -3 -2 -14 31 -26 74
-101 365 -110 1032 -20 1426 32 138 106 429 118 461 6 15 11 35 10 44 -1 33
-31 -66 -90 -298 -33 -129 -67 -248 -74 -264 -8 -16 -13 -32 -10 -36 10 -16
-32 -359 -46 -377 -8 -10 -117 -141 -243 -292 -126 -151 -254 -309 -284 -352
-31 -43 -57 -77 -59 -75 -2 2 10 66 27 143 57 263 254 728 515 1218 74 139
157 287 178 318 11 16 17 30 14 33 -2 3 -18 -17 -34 -43z m61 -1508 c23 -126
38 -265 28 -265 -1 0 -19 12 -38 28 l-34 27 1 200 c0 119 4 190 9 175 4 -14
19 -88 34 -165z m-730 -326 c8 -64 16 -122 18 -130 2 -8 -16 -20 -47 -30 -49
-17 -50 -17 -53 3 -4 21 22 181 40 252 5 22 13 35 18 30 5 -5 16 -61 24 -125z
m739 57 c19 -15 28 -31 25 -44 -3 -21 -3 -21 -35 4 -18 14 -33 34 -33 45 0 25
8 24 43 -5z m-677 -145 c23 -18 22 -31 -1 -31 -7 0 -17 11 -23 25 -14 30 -8
31 24 6z m-36 -130 c19 -36 50 -145 50 -177 0 -36 -21 -50 -51 -34 -20 11 -22
10 -32 -37 -3 -13 1 -24 9 -27 8 -3 14 -15 14 -26 0 -25 18 -26 37 -2 14 16
14 16 9 0 -4 -14 0 -18 18 -18 13 0 26 -7 29 -14 8 -21 55 -325 66 -431 5 -49
12 -155 16 -235 10 -238 25 -400 47 -490 21 -90 77 -231 115 -292 13 -21 23
-40 23 -42 0 -19 142 -206 209 -276 9 -9 66 -70 126 -135 97 -104 110 -122
107 -149 -2 -17 -12 -92 -22 -166 -41 -291 -64 -506 -55 -525 6 -16 10 -8 17
35 4 30 15 100 23 155 9 55 16 107 16 115 1 36 42 347 48 363 6 16 16 7 62
-50 98 -120 101 -127 94 -180 -4 -27 -22 -113 -41 -193 -33 -140 -54 -249 -69
-355 -7 -47 -8 -48 -22 -30 -15 20 -15 20 -9 -2 6 -17 -1 -27 -37 -52 -25 -17
-47 -27 -51 -24 -3 4 -6 39 -6 80 0 40 -4 73 -9 73 -15 0 -21 -29 -21 -110 l0
-78 -43 -20 c-76 -36 -237 -56 -253 -31 -11 19 -14 510 -3 599 14 111 19 339
8 345 -11 8 -29 -28 -29 -60 0 -23 -3 -25 -27 -19 -16 4 -31 9 -35 13 -4 3 -8
48 -9 99 -3 110 -15 118 -73 47 -40 -49 -56 -56 -56 -25 0 10 -4 29 -9 42 -16
41 -97 636 -89 660 3 7 9 6 18 -3 32 -31 73 -59 87 -59 8 0 0 12 -19 28 -79
65 -117 131 -118 203 l0 56 50 -5 c33 -3 50 -1 50 7 0 6 -11 11 -24 11 -41 0
-84 20 -90 43 -3 12 -9 78 -12 147 l-7 125 58 108 c31 59 55 111 51 114 -8 8
-8 9 -51 -72 -21 -38 -50 -90 -66 -115 -15 -25 -37 -70 -48 -100 -30 -79 -38
-90 -45 -59 -39 167 -54 293 -67 536 -13 238 -4 484 23 659 l11 71 48 2 c39 2
50 -2 59 -18z m255 -71 c-3 -5 -11 -10 -16 -10 -6 0 -7 5 -4 10 3 6 11 10 16
10 6 0 7 -4 4 -10z m325 -210 c0 -5 -5 -10 -11 -10 -5 0 -7 5 -4 10 3 6 8 10
11 10 2 0 4 -4 4 -10z m-567 -1110 c-3 -3 -16 9 -29 25 -29 34 -28 74 2 140
l18 40 7 -100 c3 -55 4 -102 2 -105z m-42 -80 c77 -128 82 -138 67 -154 -7 -7
-21 -11 -32 -8 -15 4 -18 1 -13 -12 4 -10 7 -22 7 -27 0 -5 7 -9 16 -9 10 0
14 6 10 15 -4 12 -2 13 14 3 10 -7 21 -22 24 -34 10 -37 28 -275 22 -281 -3
-3 -11 6 -17 21 -7 14 -15 26 -20 26 -4 0 -14 18 -23 40 -9 22 -20 40 -25 40
-14 0 -20 23 -31 137 -10 100 -42 278 -57 320 -11 31 5 10 58 -77z m51 5 c10
-40 3 -43 -16 -6 -19 36 -20 44 -4 39 7 -3 15 -17 20 -33z m-282 -382 c0 -2
-4 -3 -10 -3 -14 0 -40 67 -39 104 0 26 4 21 24 -34 14 -36 25 -66 25 -67z m4
-89 c33 -24 88 -17 134 15 22 16 43 34 47 40 3 6 10 11 15 11 13 0 -9 -49 -37
-83 -13 -16 -23 -36 -23 -44 0 -9 29 -43 64 -77 61 -59 64 -64 81 -141 50
-226 167 -468 300 -620 l53 -60 4 -244 3 -243 -36 5 c-55 7 -196 79 -274 139
-38 30 -102 94 -142 143 -117 146 -179 280 -203 445 -21 142 -40 455 -39 645
l1 190 16 -53 c10 -30 26 -60 36 -68z m73 63 c14 -32 5 -47 -28 -47 -29 0 -33
7 -29 45 4 40 40 41 57 2z m173 -78 c0 -19 7 -37 18 -45 15 -12 15 -13 1 -14
-9 0 -19 -7 -23 -15 -8 -21 -26 -19 -53 7 -30 28 -29 33 9 69 41 37 48 36 48
-2z m114 -101 c7 -35 26 -149 31 -188 2 -19 9 -62 15 -95 13 -79 13 -186 0
-165 -21 32 -74 169 -91 235 -22 82 -24 129 -7 176 20 58 44 75 52 37z m1750
-552 c20 -8 56 -44 97 -96 35 -45 86 -108 112 -139 l49 -56 -89 -84 c-93 -88
-285 -251 -343 -292 -19 -13 -50 -37 -69 -52 -18 -16 -39 -26 -47 -23 -7 3
-11 0 -9 -7 4 -11 -112 -102 -262 -207 -60 -42 -63 -43 -82 -26 -42 38 -95
209 -111 361 -12 112 -13 378 -1 371 4 -3 6 7 5 22 -2 15 -1 21 2 14 3 -6 10
-10 15 -6 5 3 9 0 9 -5 0 -15 33 -14 48 1 7 7 12 23 12 36 0 19 -4 23 -19 19
-15 -3 -20 2 -23 22 -4 26 -2 28 39 30 23 1 76 8 118 15 63 11 75 11 71 0 -3
-7 -1 -16 4 -19 6 -4 10 -25 10 -48 0 -45 32 -184 50 -217 6 -11 8 -20 5 -20
-8 0 64 -140 98 -190 44 -63 69 -90 84 -90 18 0 17 16 -2 23 -16 7 -59 86 -51
94 3 3 8 -2 12 -11 6 -15 8 -15 21 4 17 24 7 42 -36 63 -31 14 -47 70 -57 188
-6 73 -5 76 16 82 27 7 22 31 -9 35 -21 3 -22 8 -20 72 l2 68 43 11 c60 15 74
14 74 -8 0 -11 5 -32 12 -48 12 -27 12 -27 18 26 l5 53 70 23 c86 28 88 28
129 11z m-788 -339 c1 -255 7 -318 45 -472 20 -80 68 -195 81 -195 5 0 8 -5 8
-11 0 -6 -7 -8 -16 -5 -8 3 -13 2 -10 -2 11 -18 -277 -227 -296 -216 -7 4 -8
2 -4 -5 4 -6 0 -14 -9 -18 -10 -3 -20 0 -25 6 -5 9 -9 8 -13 -4 -4 -9 -3 -13
3 -10 6 3 10 2 10 -3 0 -6 -6 -12 -14 -15 -24 -9 -28 76 -12 213 26 207 106
672 146 850 4 19 16 72 26 118 l18 82 31 -30 30 -30 1 -253z m404 191 c0 -40
5 -102 11 -137 5 -35 12 -85 15 -110 2 -25 7 -55 10 -66 4 -13 3 -17 -3 -10
-29 30 -92 261 -93 338 0 22 -5 37 -12 38 -16 1 31 17 55 18 15 1 17 -9 17
-71z m-1093 40 c-3 -8 -6 -5 -6 6 -1 11 2 17 5 13 3 -3 4 -12 1 -19z m-3 -60
c-2 -65 -3 -70 -14 -63 -6 4 -8 16 -4 27 3 12 2 18 -3 15 -6 -4 -5 9 1 28 15
47 23 44 20 -7z m468 -527 c-3 -23 -8 -28 -25 -24 -21 4 -21 3 -4 -10 18 -15
24 -72 7 -82 -5 -3 -7 0 -4 9 4 11 0 13 -15 9 -17 -4 -20 -2 -15 11 4 11 -1
19 -16 24 -21 8 -19 10 26 50 27 23 49 42 50 42 0 0 -1 -13 -4 -29z m-42 -120
c3 -2 -3 -1 -12 2 -24 8 -23 -11 2 -43 24 -30 25 -41 5 -34 -8 4 -15 14 -16
23 0 9 -3 11 -5 4 -3 -7 -1 -21 5 -32 8 -14 8 -21 -2 -25 -6 -4 -2 -4 10 -2
20 3 21 1 16 -28 -9 -47 -20 -62 -20 -26 0 18 -4 35 -10 38 -6 4 -12 42 -15
84 -4 84 -7 80 42 39z m20 -32 c0 -5 -4 -9 -10 -9 -5 0 -10 7 -10 16 0 8 5 12
10 9 6 -3 10 -10 10 -16z m-3 -505 c-3 -3 -12 -4 -19 -1 -8 3 -5 6 6 6 11 1
17 -2 13 -5z m210 -336 l-14 -187 -59 -72 c-106 -129 -234 -300 -302 -403 -50
-75 -112 -146 -242 -278 -173 -175 -176 -177 -230 -186 -247 -43 -391 -64
-404 -59 -47 18 14 288 123 549 18 43 41 88 52 102 66 84 1074 758 1086 727 2
-3 -3 -90 -10 -193z m-1141 -610 c-9 -12 -16 -32 -16 -44 0 -11 -9 -29 -21
-40 -11 -10 -18 -26 -16 -36 3 -10 -6 -29 -20 -45 -14 -15 -21 -29 -15 -31 12
-4 4 -32 -9 -32 -5 0 -9 8 -9 17 0 9 -7 25 -17 35 -9 10 -13 21 -10 25 4 4 13
-2 21 -12 9 -13 15 -15 20 -6 10 16 -1 44 -14 36 -5 -3 -10 -1 -10 4 0 6 5 11
10 11 6 0 10 6 10 14 0 7 11 25 25 40 14 15 25 30 25 33 0 10 42 53 52 53 5 0
2 -10 -6 -22z m1044 -5 c-1 -13 -29 -59 -30 -48 0 21 13 55 21 55 5 0 9 -3 9
-7z m-60 -38 c10 -12 10 -15 -4 -15 -9 0 -16 7 -16 15 0 8 2 15 4 15 2 0 9 -7
16 -15z m-1100 -166 c0 -21 -16 -26 -23 -6 -2 6 -2 -1 0 -18 5 -30 5 -30 -11
-8 -13 17 -14 28 -6 48 9 23 13 25 25 15 8 -7 15 -21 15 -31z m-53 -51 c-3 -8
-6 -5 -6 6 -1 11 2 17 5 13 3 -3 4 -12 1 -19z m1106 -93 c-16 -73 -19 -79 -51
-92 -65 -27 -65 -13 1 84 34 50 63 90 64 89 2 -1 -5 -38 -14 -81z m-1053 65
c0 -5 -4 -10 -10 -10 -5 0 -10 5 -10 10 0 6 5 10 10 10 6 0 10 -4 10 -10z
m2345 -1489 c-9 -15 -43 -1 -48 20 -5 17 -3 18 24 3 16 -8 27 -19 24 -23z"/>
<path d="M2322 6565 c0 -16 2 -22 5 -12 2 9 2 23 0 30 -3 6 -5 -1 -5 -18z"/>
<path d="M2334 6510 c3 -14 6 -39 6 -56 0 -16 6 -39 14 -50 13 -17 14 -14 5
24 -5 24 -7 46 -5 50 2 4 -2 18 -11 32 l-14 25 5 -25z"/>
<path d="M2370 6341 c0 -11 4 -22 9 -25 4 -3 6 6 3 19 -5 30 -12 33 -12 6z"/>
<path d="M2645 4969 c0 -39 -4 -53 -19 -61 -18 -10 -15 -13 30 -34 60 -28 64
-29 64 -6 0 9 13 26 29 37 24 15 28 23 20 37 -5 10 -16 18 -24 18 -8 0 -18 6
-22 14 -7 11 -64 46 -75 46 -2 0 -3 -23 -3 -51z"/>
<path d="M2866 4852 c-3 -20 -6 -52 -6 -70 0 -18 -7 -48 -14 -67 -13 -30 -13
-35 -1 -35 8 0 19 8 24 18 14 26 25 178 13 185 -5 4 -12 -10 -16 -31z"/>
<path d="M2884 3635 c-5 -27 -2 -41 11 -55 17 -19 17 -21 1 -39 -18 -20 -13
-47 6 -35 6 4 19 -4 29 -17 l19 -24 29 34 c16 20 33 31 39 27 7 -4 12 -2 12 4
0 6 4 8 10 5 6 -3 7 1 4 9 -3 8 -14 18 -25 21 -10 4 -24 15 -29 26 -6 10 -20
19 -31 19 -13 0 -24 10 -30 30 -15 41 -37 38 -45 -5z"/>
<path d="M3205 3590 c-3 -5 -2 -10 4 -10 5 0 13 5 16 10 3 6 2 10 -4 10 -5 0
-13 -4 -16 -10z"/>
<path d="M3045 3510 c3 -5 14 -10 23 -10 15 0 15 2 2 10 -20 13 -33 13 -25 0z"/>
<path d="M4150 3909 c0 -14 55 -115 81 -147 35 -45 21 2 -21 72 -22 36 -40 70
-40 76 0 5 -4 10 -10 10 -5 0 -10 -5 -10 -11z"/>
<path d="M3670 3270 c0 -5 5 -10 10 -10 6 0 10 5 10 10 0 6 -4 10 -10 10 -5 0
-10 -4 -10 -10z"/>
<path d="M3901 3955 c1 -19 18 -51 18 -35 0 8 -4 22 -9 30 -5 8 -9 11 -9 5z"/>
<path d="M3255 3480 c-3 -5 -1 -10 4 -10 6 0 11 5 11 10 0 6 -2 10 -4 10 -3 0
-8 -4 -11 -10z"/>
<path d="M2296 1883 c-6 -14 -5 -15 5 -6 7 7 10 15 7 18 -3 3 -9 -2 -12 -12z"/>
<path d="M2090 8915 c-7 -9 -11 -17 -9 -20 3 -2 10 5 17 15 14 24 10 26 -8 5z"/>
<path d="M2060 8860 c-6 -11 -8 -20 -6 -20 3 0 10 9 16 20 6 11 8 20 6 20 -3
0 -10 -9 -16 -20z"/>
<path d="M1672 8630 c0 -14 2 -19 5 -12 2 6 2 18 0 25 -3 6 -5 1 -5 -13z"/>
<path d="M4124 8385 c0 -55 1 -76 3 -47 2 29 2 74 0 100 -2 26 -3 2 -3 -53z"/>
<path d="M1879 8443 c-13 -16 -12 -17 4 -4 16 13 21 21 13 21 -2 0 -10 -8 -17
-17z"/>
<path d="M1421 8365 c1 -19 18 -51 18 -35 0 8 -4 22 -9 30 -5 8 -9 11 -9 5z"/>
<path d="M2957 8243 c-30 -48 -94 -155 -143 -238 -48 -82 -148 -250 -222 -373
-74 -123 -132 -225 -129 -228 6 -6 75 103 237 376 73 124 175 296 227 383 100
169 123 228 30 80z"/>
<path d="M2462 8263 c-78 -195 -182 -595 -207 -798 -4 -27 -9 -58 -12 -67 -2
-10 0 -18 6 -18 6 0 11 11 11 25 0 97 113 565 192 794 15 46 27 86 25 88 -3 2
-9 -9 -15 -24z"/>
<path d="M4117 8260 c3 -11 7 -20 9 -20 2 0 4 9 4 20 0 11 -4 20 -9 20 -5 0
-7 -9 -4 -20z"/>
<path d="M4151 8193 c32 -53 101 -153 106 -153 5 0 0 9 -64 108 -55 82 -84
114 -42 45z"/>
<path d="M4111 8178 c6 -13 22 -38 36 -55 20 -27 22 -37 13 -55 -11 -22 -10
-22 4 -4 9 11 17 18 19 15 104 -129 137 -170 159 -199 39 -50 81 -98 72 -80
-15 28 -153 207 -207 267 -29 33 -63 76 -76 96 -25 41 -39 50 -20 15z"/>
<path d="M4113 8080 c0 -25 2 -35 4 -22 2 12 2 32 0 45 -2 12 -4 2 -4 -23z"/>
<path d="M2115 8037 c-35 -79 -110 -326 -101 -334 2 -3 21 49 41 114 20 65 48
149 61 187 28 78 27 97 -1 33z"/>
<path d="M970 8055 c-7 -9 -11 -18 -8 -20 3 -3 11 1 18 10 7 9 11 18 8 20 -3
3 -11 -1 -18 -10z"/>
<path d="M4133 8024 c-3 -8 -11 -13 -17 -11 -8 3 -12 -9 -13 -37 0 -23 1 -30
4 -16 3 14 10 32 17 40 19 22 28 40 21 40 -3 0 -8 -7 -12 -16z"/>
<path d="M990 7940 c0 -5 5 -10 10 -10 6 0 10 5 10 10 0 6 -4 10 -10 10 -5 0
-10 -4 -10 -10z"/>
<path d="M4092 7900 c0 -19 2 -27 5 -17 2 9 2 25 0 35 -3 9 -5 1 -5 -18z"/>
<path d="M1816 7829 c-8 -42 0 -50 9 -9 4 17 5 34 2 36 -2 3 -7 -10 -11 -27z"/>
<path d="M4081 7832 c0 -13 -28 -141 -61 -285 -59 -256 -82 -357 -155 -661
-35 -149 -42 -198 -27 -181 5 6 19 60 32 122 12 61 26 117 31 124 15 25 233
27 499 4 41 -3 72 -4 69 0 -11 10 -350 36 -441 33 -130 -3 -117 9 19 18 75 4
169 3 257 -5 76 -7 140 -10 142 -8 2 2 -46 9 -108 16 -127 13 -314 16 -384 5
-42 -6 -46 -5 -40 12 8 27 104 441 127 549 39 186 50 247 46 263 -3 11 -5 9
-6 -6z"/>
<path d="M4460 7738 c18 -27 35 -48 37 -48 8 0 -33 62 -51 78 -11 9 -5 -4 14
-30z"/>
<path d="M1792 7735 c-20 -74 -24 -95 -19 -95 9 0 39 110 34 123 -2 7 -9 -6
-15 -28z"/>
<path d="M4550 7617 c0 -2 15 -16 33 -33 l32 -29 -29 33 c-28 30 -36 37 -36
29z"/>
<path d="M4646 7510 c80 -94 144 -161 144 -153 -1 4 -42 51 -92 103 -50 52
-73 75 -52 50z"/>
<path d="M1678 7402 c-10 -15 -49 -72 -88 -126 -52 -74 -68 -105 -64 -122 3
-12 -2 -36 -11 -54 -86 -167 -129 -529 -91 -760 15 -87 53 -223 79 -282 8 -18
18 -42 21 -52 4 -10 9 -16 13 -12 3 3 14 -1 24 -10 16 -15 20 -15 34 -1 8 9
15 24 14 34 0 15 -2 14 -9 -4 -17 -41 -45 -23 -34 21 4 16 11 23 20 19 8 -3
14 1 14 11 0 9 -6 16 -13 16 -8 0 -12 13 -12 38 3 111 5 124 18 119 10 -4 13
5 13 29 -1 19 -4 34 -8 34 -10 0 -8 208 2 240 7 23 8 23 11 -10 3 -42 2 -55
-5 -95 -2 -16 -2 -24 1 -17 2 6 9 10 14 6 15 -9 10 -22 -8 -27 -15 -4 -15 -5
-2 -6 30 -2 58 -302 39 -421 -14 -88 -27 -120 -41 -99 -6 9 -6 1 -2 -21 6 -33
5 -34 -10 -18 -9 9 -17 21 -17 27 0 5 -11 22 -25 37 -32 35 -86 147 -119 249
-55 170 -72 441 -40 652 11 81 12 108 3 119 -8 10 -8 14 0 14 6 0 11 6 11 14
0 8 3 16 8 18 8 3 44 99 39 105 -4 3 -61 -83 -128 -192 -77 -126 -193 -369
-253 -530 -21 -55 -44 -116 -51 -135 -123 -327 -178 -661 -145 -890 14 -93 61
-239 92 -283 35 -49 14 -49 -36 0 -79 78 -131 163 -172 283 -22 61 -23 63 -17
20 16 -121 164 -344 261 -394 23 -12 29 -21 25 -36 -4 -14 0 -20 11 -20 10 0
15 -4 12 -9 -3 -5 5 -16 19 -25 14 -9 25 -22 25 -30 0 -20 45 -39 84 -34 24 3
37 -1 41 -10 3 -8 0 -10 -8 -6 -9 5 -9 4 -1 -5 9 -9 -12 -69 -82 -238 -52
-124 -93 -228 -90 -230 2 -2 9 11 16 29 8 18 26 60 40 93 87 192 218 506 275
657 37 95 77 200 89 233 13 33 58 168 100 300 43 132 88 271 102 308 15 43 24
90 24 126 0 32 27 193 59 357 32 165 62 324 66 354 3 30 9 63 11 73 3 9 1 17
-4 17 -5 0 -14 -33 -21 -72 -56 -322 -116 -615 -124 -602 -34 56 -43 696 -13
979 17 165 26 221 41 258 11 27 -8 20 -27 -11z m-646 -1299 c-2 -21 -3 -60 -2
-87 0 -28 -6 -58 -14 -71 -9 -13 -11 -25 -6 -27 7 -2 6 -15 0 -38 -5 -19 -10
-58 -10 -87 0 -28 -5 -55 -11 -59 -7 -4 -7 -10 -1 -16 10 -10 5 -92 -8 -123
-16 -39 -21 -105 -8 -105 9 0 8 -3 -2 -10 -13 -9 -13 -10 0 -10 12 0 13 -2 1
-9 -10 -6 -12 -20 -7 -47 5 -28 4 -35 -3 -24 -9 13 -11 13 -11 -2 0 -9 -3 -25
-6 -35 -5 -15 -4 -16 6 -3 10 13 11 13 6 -2 -3 -10 -9 -26 -12 -35 -4 -12 -3
-14 3 -6 5 7 8 -26 9 -78 0 -49 -1 -89 -3 -89 -7 0 -31 71 -44 130 -9 42 -14
126 -14 240 0 150 3 188 23 265 33 128 62 228 71 245 4 8 14 39 21 68 16 61
27 68 22 15z"/>
<path d="M2571 7346 c2 -2 40 -14 84 -26 44 -11 99 -30 123 -40 30 -14 49 -17
65 -10 15 6 17 9 6 9 -9 1 -68 17 -130 36 -99 30 -162 44 -148 31z"/>
<path d="M4830 7315 c13 -14 26 -25 28 -25 3 0 -5 11 -18 25 -13 14 -26 25
-28 25 -3 0 5 -11 18 -25z"/>
<path d="M4975 7180 c10 -11 20 -20 23 -20 3 0 -3 9 -13 20 -10 11 -20 20 -23
20 -3 0 3 -9 13 -20z"/>
<path d="M1879 7072 c-9 -68 -14 -186 -13 -327 1 -207 3 -228 33 -368 70 -328
194 -605 341 -766 59 -65 61 -42 3 26 -157 182 -277 467 -339 803 -22 122 -29
407 -15 584 7 81 11 150 8 152 -2 2 -10 -45 -18 -104z"/>
<path d="M1090 7104 c0 -8 5 -12 10 -9 6 3 10 10 10 16 0 5 -4 9 -10 9 -5 0
-10 -7 -10 -16z"/>
<path d="M5089 7087 c14 -18 51 -42 51 -33 0 3 -15 15 -32 27 -24 17 -29 18
-19 6z"/>
<path d="M6283 7040 c0 -25 2 -35 4 -22 2 12 2 32 0 45 -2 12 -4 2 -4 -23z"/>
<path d="M5060 6965 c19 -19 36 -35 39 -35 3 0 -10 16 -29 35 -19 19 -36 35
-39 35 -3 0 10 -16 29 -35z"/>
<path d="M4473 6983 c9 -2 25 -2 35 0 9 3 1 5 -18 5 -19 0 -27 -2 -17 -5z"/>
<path d="M4558 6970 c17 -6 32 -15 32 -20 0 -6 18 -10 39 -10 21 0 120 -13
219 -30 183 -30 280 -40 142 -14 -152 28 -406 75 -435 79 -30 5 -30 5 3 -5z"/>
<path d="M5101 6917 c2 -1 13 -9 24 -17 19 -14 19 -14 6 3 -7 9 -18 17 -24 17
-6 0 -8 -1 -6 -3z"/>
<path d="M6281 6894 c0 -11 3 -14 6 -6 3 7 2 16 -1 19 -3 4 -6 -2 -5 -13z"/>
<path d="M5140 6876 c0 -2 12 -12 28 -21 l27 -18 -19 21 c-17 20 -36 29 -36
18z"/>
<path d="M6283 6830 c0 -25 2 -35 4 -22 2 12 2 32 0 45 -2 12 -4 2 -4 -23z"/>
<path d="M6449 6785 c8 -24 17 -42 19 -40 6 5 -18 74 -27 80 -5 2 -1 -15 8
-40z"/>
<path d="M4267 6773 c-6 -9 252 -37 260 -29 5 5 -105 22 -193 31 -34 4 -64 3
-67 -2z"/>
<path d="M4210 6762 c-49 -16 -168 -82 -149 -82 7 0 159 70 168 77 9 6 -4 10
-19 5z"/>
<path d="M5212 6730 c0 -14 2 -19 5 -12 2 6 2 18 0 25 -3 6 -5 1 -5 -13z"/>
<path d="M6316 6730 c19 -70 200 -373 230 -384 7 -3 -8 25 -34 62 -61 86 -111
168 -162 268 -22 43 -37 68 -34 54z"/>
<path d="M6277 6723 c-2 -5 -4 -46 -5 -93 -7 -400 -44 -803 -102 -1100 -21
-109 -23 -126 -16 -119 9 9 46 210 70 384 32 227 56 542 56 710 0 77 4 125 9
120 5 -6 28 -46 51 -90 51 -96 91 -156 142 -211 l38 -41 -43 -18 c-49 -22
-129 -73 -171 -110 -48 -42 -25 -37 33 7 93 71 175 108 239 108 47 1 54 3 38
12 -11 6 -34 12 -53 13 -39 2 -67 26 -128 108 -58 76 -144 248 -147 292 -2 36
-4 40 -11 28z"/>
<path d="M6486 6690 c9 -25 21 -49 26 -55 5 -5 2 10 -8 35 -9 25 -21 50 -26
55 -5 6 -2 -10 8 -35z"/>
<path d="M4223 6635 c-89 -27 -170 -61 -179 -77 -3 -5 11 -1 33 8 21 9 77 29
126 45 81 27 98 29 240 29 130 0 329 -15 472 -35 27 -4 35 -3 25 4 -29 18
-266 43 -450 47 -175 4 -189 3 -267 -21z"/>
<path d="M5201 6644 c0 -11 3 -14 6 -6 3 7 2 16 -1 19 -3 4 -6 -2 -5 -13z"/>
<path d="M926 6605 c-9 -26 -7 -32 5 -12 6 10 9 21 6 23 -2 3 -7 -2 -11 -11z"/>
<path d="M4348 6587 c18 -18 32 -36 32 -39 0 -4 -26 -14 -57 -24 -96 -27 -104
-33 -53 -34 l45 -1 -35 -30 c-19 -17 -60 -43 -90 -59 -75 -39 -51 -37 70 6 55
20 103 34 106 31 17 -17 -86 -140 -171 -205 -24 -19 -19 -17 25 6 30 16 88 48
129 71 67 39 188 91 210 91 5 0 2 -26 -6 -57 -22 -79 -22 -214 0 -285 l17 -56
30 11 c22 9 30 18 30 37 0 24 16 59 22 50 2 -3 11 -21 21 -40 l17 -35 -7 50
c-4 28 -7 69 -6 93 1 23 -3 42 -9 42 -5 0 -8 12 -6 28 4 34 37 37 53 5 11 -21
11 -21 23 -2 7 10 21 19 32 19 25 0 43 -58 25 -80 -7 -8 -11 -19 -10 -25 2 -5
6 -22 9 -37 6 -28 32 -36 70 -22 18 7 21 60 7 132 -7 35 -6 45 6 49 8 3 18 0
23 -6 6 -11 55 -41 66 -41 3 0 4 16 2 35 -1 19 1 37 5 41 4 4 1 14 -6 23 -11
14 -10 14 6 2 16 -13 20 -12 33 7 19 27 48 28 102 2 22 -11 45 -20 50 -20 8 0
22 73 37 193 l6 48 -20 -20 c-35 -35 -101 -37 -210 -7 -53 14 -130 33 -171 41
-82 16 -316 21 -322 6 -8 -24 -71 -16 -106 14 -44 37 -61 31 -24 -8z m495
-344 c-7 -2 -19 -2 -25 0 -7 3 -2 5 12 5 14 0 19 -2 13 -5z m-3 -28 c0 -8 5
-15 12 -15 6 0 9 -2 7 -5 -3 -2 -15 -2 -27 2 -25 6 -30 33 -7 33 8 0 15 -7 15
-15z m-236 -164 c3 -5 -1 -11 -9 -14 -9 -4 -12 -1 -8 9 6 16 10 17 17 5z"/>
<path d="M6530 6587 c0 -4 22 -62 48 -129 27 -68 56 -144 66 -170 10 -26 22
-50 27 -54 5 -3 5 4 -1 18 -5 13 -37 93 -71 178 -57 146 -69 173 -69 157z"/>
<path d="M3055 6500 c3 -5 8 -10 11 -10 2 0 4 5 4 10 0 6 -5 10 -11 10 -5 0
-7 -4 -4 -10z"/>
<path d="M3040 6412 c0 -5 9 -17 20 -27 11 -10 20 -15 20 -12 0 4 -9 16 -20
27 -11 11 -20 16 -20 12z"/>
<path d="M5186 6369 c-10 -50 -8 -54 39 -88 43 -31 45 -35 39 -68 -5 -26 -4
-34 5 -29 20 12 12 61 -13 85 -17 16 -26 38 -31 77 -7 61 -29 73 -39 23z"/>
<path d="M1820 6178 c-63 -168 -91 -250 -85 -256 2 -3 8 4 12 14 3 10 35 91
70 178 36 91 59 164 55 168 -5 5 -28 -40 -52 -104z"/>
<path d="M6310 6250 c0 -11 38 -32 50 -28 5 2 -4 11 -20 20 -17 9 -30 13 -30
8z"/>
<path d="M5150 6230 c0 -13 -7 -20 -19 -20 -10 0 -21 -7 -25 -15 -3 -8 0 -15
7 -15 7 0 8 -3 2 -8 -5 -4 -11 -38 -13 -77 -5 -154 -75 -250 -203 -279 l-50
-11 32 -30 32 -30 -7 29 c-7 28 -6 28 30 24 21 -2 60 1 88 8 28 7 43 13 34 13
-25 1 -23 10 21 98 21 43 46 107 54 143 19 77 32 190 23 190 -3 0 -6 -9 -6
-20z"/>
<path d="M4887 6210 c6 -22 23 -38 23 -21 0 17 -12 41 -20 41 -5 0 -6 -9 -3
-20z"/>
<path d="M2940 6202 c0 -20 73 -112 105 -132 38 -23 59 -22 29 1 -38 30 -104
102 -109 120 -6 18 -25 27 -25 11z"/>
<path d="M2803 6163 c-22 -8 -14 -21 12 -19 14 0 25 4 25 7 0 10 -23 17 -37
12z"/>
<path d="M5265 6149 c-4 -6 -5 -12 -2 -15 2 -3 7 2 10 11 7 17 1 20 -8 4z"/>
<path d="M781 6124 c0 -11 3 -14 6 -6 3 7 2 16 -1 19 -3 4 -6 -2 -5 -13z"/>
<path d="M4985 6130 c3 -5 8 -10 11 -10 2 0 4 5 4 10 0 6 -5 10 -11 10 -5 0
-7 -4 -4 -10z"/>
<path d="M2867 6103 c-4 -3 -7 -12 -7 -20 0 -11 5 -11 20 -3 11 6 20 15 20 20
0 11 -23 13 -33 3z"/>
<path d="M6520 6101 c-14 -5 -39 -15 -55 -24 -37 -20 -202 -173 -195 -181 3
-3 41 28 85 69 44 41 83 75 88 75 4 0 7 -9 7 -20 0 -34 25 -72 77 -121 56 -52
109 -74 158 -65 55 11 49 23 -9 18 -65 -5 -96 9 -158 76 -52 55 -71 113 -47
138 8 7 52 20 99 28 82 13 83 14 30 14 -30 0 -66 -3 -80 -7z"/>
<path d="M2977 6083 c-9 -8 -9 -43 -1 -43 8 0 33 32 34 43 0 9 -24 9 -33 0z"/>
<path d="M761 6034 c0 -11 3 -14 6 -6 3 7 2 16 -1 19 -3 4 -6 -2 -5 -13z"/>
<path d="M5254 6015 c-4 -8 -10 -12 -15 -9 -5 3 -9 0 -9 -5 0 -17 14 -13 33 9
9 11 12 20 7 20 -6 0 -13 -7 -16 -15z"/>
<path d="M6736 6005 c-3 -9 -6 -29 -5 -43 1 -27 1 -27 8 -3 8 29 18 18 46 -49
10 -25 25 -52 32 -60 13 -13 -3 34 -40 120 -6 14 -11 29 -11 34 -2 17 -23 17
-30 1z"/>
<path d="M1540 5981 c0 -5 11 -23 26 -38 l25 -28 -15 32 c-16 33 -36 52 -36
34z"/>
<path d="M5189 5948 c-12 -23 -12 -23 10 -4 23 21 26 26 11 26 -5 0 -15 -10
-21 -22z"/>
<path d="M741 5934 c0 -11 3 -14 6 -6 3 7 2 16 -1 19 -3 4 -6 -2 -5 -13z"/>
<path d="M1596 5937 c3 -10 9 -15 12 -12 3 3 0 11 -7 18 -10 9 -11 8 -5 -6z"/>
<path d="M4600 5932 c0 -18 57 -87 83 -101 15 -8 27 -23 27 -33 0 -16 3 -16
20 -6 27 17 25 22 -12 33 -23 8 -38 23 -58 60 -24 44 -60 73 -60 47z"/>
<path d="M725 5845 c-3 -26 -4 -49 -2 -51 3 -3 8 16 12 41 3 26 4 49 2 51 -3
3 -8 -16 -12 -41z"/>
<path d="M5286 5875 c-9 -26 -7 -32 5 -12 6 10 9 21 6 23 -2 3 -7 -2 -11 -11z"/>
<path d="M5257 5805 c-24 -50 -20 -58 4 -12 11 22 19 41 17 43 -3 2 -12 -12
-21 -31z"/>
<path d="M485 5781 c41 -45 113 -96 122 -87 3 2 -10 12 -28 21 -18 10 -55 38
-83 63 l-51 46 40 -43z"/>
<path d="M616 5808 c14 -22 104 -55 104 -38 0 6 -4 9 -9 6 -5 -3 -29 5 -54 18
-26 12 -44 19 -41 14z"/>
<path d="M6290 5816 c0 -3 10 -25 21 -49 29 -59 21 -96 -42 -192 -27 -43 -48
-79 -46 -81 11 -12 112 150 122 197 5 20 0 43 -16 75 -21 41 -39 64 -39 50z"/>
<path d="M6825 5799 c-6 -17 -9 -19 -16 -8 -6 10 -9 8 -9 -8 0 -13 5 -23 10
-23 6 0 10 -14 10 -32 0 -53 13 -22 16 37 2 59 -1 68 -11 34z"/>
<path d="M4955 5657 c-48 -113 -140 -252 -201 -306 -121 -106 -249 -161 -376
-161 -90 0 -133 12 -170 47 -37 36 -48 22 -11 -15 52 -53 186 -67 306 -32 200
57 363 222 471 478 19 45 32 82 28 82 -4 0 -25 -42 -47 -93z"/>
<path d="M6860 5747 c0 -4 8 -27 19 -50 33 -75 35 -88 13 -94 -23 -6 -32 -29
-22 -57 6 -17 8 -16 28 9 26 32 27 32 40 -15 6 -19 11 -28 11 -19 1 20 -45
152 -69 198 -11 20 -19 32 -20 28z"/>
<path d="M6360 5730 c0 -6 11 -10 25 -10 41 0 104 -31 126 -62 25 -34 37 -102
20 -112 -6 -4 -11 -12 -11 -18 0 -19 28 11 34 38 8 29 -21 101 -50 125 -34 29
-144 58 -144 39z"/>
<path d="M6700 5659 c-79 -76 -73 -77 17 -2 l39 31 2 -25 c3 -42 53 -86 74
-65 12 12 -29 82 -47 82 -23 0 -28 20 -9 41 38 42 5 15 -76 -62z"/>
<path d="M5216 5715 c-9 -26 -7 -32 5 -12 6 10 9 21 6 23 -2 3 -7 -2 -11 -11z"/>
<path d="M5416 5683 c-6 -14 -5 -15 5 -6 7 7 10 15 7 18 -3 3 -9 -2 -12 -12z"/>
<path d="M635 5680 c11 -5 30 -9 42 -9 22 -1 23 -2 26 -203 l2 -203 3 211 2
211 -47 1 c-35 1 -43 -2 -28 -8z"/>
<path d="M5186 5645 c-9 -26 -7 -32 5 -12 6 10 9 21 6 23 -2 3 -7 -2 -11 -11z"/>
<path d="M5105 5567 c-111 -200 -295 -352 -488 -403 -29 -8 -69 -14 -89 -14
-20 0 -40 -5 -44 -11 -5 -9 7 -10 42 -5 130 18 211 50 324 126 57 39 183 164
215 213 10 15 19 26 21 25 4 -5 -55 -256 -141 -596 -42 -167 -75 -308 -73
-313 2 -6 29 93 61 218 31 125 75 296 96 378 22 83 49 197 60 253 11 55 27
118 36 138 23 54 14 50 -20 -9z"/>
<path d="M5362 5565 c-17 -37 -14 -45 4 -12 9 16 14 31 11 33 -2 2 -9 -7 -15
-21z"/>
<path d="M3015 5541 c6 -37 55 -154 62 -147 5 4 -36 116 -58 161 -7 16 -8 13
-4 -14z"/>
<path d="M6775 5512 c-129 -125 -207 -184 -358 -270 l-87 -50 0 33 c0 18 7 45
15 61 13 25 13 30 -2 46 -9 10 -28 17 -42 16 -15 -1 -31 1 -37 5 -14 8 -54
-20 -54 -38 0 -8 11 -22 25 -31 23 -15 55 -71 55 -95 0 -21 -66 -49 -117 -49
l-53 0 0 33 c0 17 5 63 10 102 16 110 42 127 214 144 107 11 138 21 60 21 -91
-1 -195 -19 -230 -41 l-34 -21 -1 29 c-3 68 -44 -284 -59 -507 -18 -277 -40
-520 -55 -620 -8 -52 -17 -113 -20 -135 l-5 -40 10 35 c13 50 37 216 51 350 6
63 14 119 17 124 3 6 4 33 3 60 -2 54 15 331 25 404 l6 42 56 0 55 0 -7 -84
c-11 -140 -80 -361 -120 -388 -6 -4 -7 -10 -3 -14 8 -8 20 5 73 83 49 72 61
80 62 43 0 -17 6 -46 12 -64 9 -28 8 -44 -6 -86 -21 -63 -12 -95 47 -180 22
-31 39 -66 39 -78 0 -40 87 -372 138 -527 54 -162 100 -278 167 -420 23 -49
53 -118 66 -152 13 -34 27 -59 31 -57 5 3 3 14 -2 25 -12 21 -1 26 18 7 6 -6
15 -9 18 -5 4 4 -12 31 -35 61 -77 103 -145 252 -230 502 -78 232 -162 556
-148 571 3 2 18 -2 34 -10 15 -8 53 -18 84 -22 l56 -7 7 -51 c3 -29 6 -70 7
-92 2 -70 17 0 18 84 1 68 2 73 21 68 11 -3 20 -1 20 4 0 5 18 26 41 46 47 42
76 94 85 151 7 45 -5 59 -36 42 -14 -8 -20 -8 -20 0 0 6 -20 30 -45 55 -41 40
-44 46 -34 69 11 24 13 24 36 9 23 -15 26 -15 46 5 17 18 19 25 9 44 -6 13
-16 42 -22 66 -11 43 -28 53 -50 27 -15 -18 -32 -19 -97 -5 -43 10 -50 15 -62
48 -18 53 -20 85 -10 219 8 106 11 120 32 138 21 17 108 73 130 83 4 2 7 -27
7 -65 0 -155 49 -372 111 -500 l40 -82 5 -173 c8 -301 22 -456 53 -574 57
-220 138 -366 255 -459 21 -16 48 -39 61 -50 13 -11 56 -83 95 -160 78 -151
138 -242 191 -290 l34 -30 -55 -6 c-30 -4 -98 -6 -150 -5 -83 2 -105 6 -175
35 -71 30 -92 46 -185 139 -57 57 -106 100 -107 95 -2 -4 32 -44 75 -88 43
-44 104 -114 137 -155 122 -154 251 -259 371 -301 58 -21 109 -25 99 -9 -3 6
-16 10 -28 10 -30 0 -114 40 -189 91 -61 41 -208 175 -208 190 0 4 19 -1 43
-10 33 -13 80 -16 227 -16 l185 0 40 -28 c22 -16 67 -52 99 -80 32 -29 65 -56
72 -60 8 -4 27 -27 43 -51 32 -46 81 -74 59 -33 -18 35 -172 180 -234 222 -55
37 -146 107 -169 130 -50 49 -145 217 -146 258 -1 12 8 58 19 102 59 233 30
642 -88 1260 -26 132 -45 221 -58 270 -6 22 -27 108 -47 190 -20 83 -46 184
-59 225 -13 41 -29 96 -36 123 -7 26 -17 50 -21 53 -12 7 -11 -9 2 -43 13 -33
24 -75 95 -343 30 -113 54 -215 54 -228 0 -12 4 -30 9 -40 13 -22 75 -345 96
-492 8 -63 20 -137 25 -165 14 -72 30 -300 30 -433 0 -93 -3 -119 -20 -150
-11 -20 -31 -65 -46 -99 -15 -35 -32 -63 -38 -63 -14 1 -72 121 -137 283 -12
31 -27 57 -32 57 -5 0 -6 -8 -2 -17 7 -18 33 -86 73 -191 12 -30 26 -60 32
-67 7 -8 10 -20 8 -27 -8 -24 -140 116 -180 189 -45 83 -90 217 -119 356 -18
84 -23 142 -25 327 -4 242 -10 370 -24 465 -5 33 -16 159 -24 280 -9 121 -18
246 -20 277 l-4 57 66 65 c37 36 64 67 61 70 -2 3 -32 -21 -64 -52z m-65 -317
c10 -157 23 -305 35 -415 l5 -45 -17 30 c-57 103 -100 285 -111 471 l-7 114
40 29 c39 29 40 29 42 8 1 -12 7 -98 13 -192z m-430 115 c0 -24 -20 -37 -30
-19 -10 16 7 52 21 44 5 -4 9 -15 9 -25z m50 10 c11 -7 12 -14 4 -27 -18 -30
-34 -27 -34 6 0 33 6 37 30 21z m90 -115 c0 -26 -51 -118 -60 -109 -4 5 -10
25 -14 44 -5 31 -2 37 27 57 39 26 47 28 47 8z m-120 -112 c0 -83 10 -135 25
-129 10 3 10 -4 3 -32 -5 -20 -11 -48 -14 -62 -2 -14 -10 -40 -16 -59 -11 -34
-11 -34 -23 -11 -7 13 -10 32 -7 43 5 19 4 19 -25 -3 -17 -12 -36 -33 -42 -47
-22 -48 -20 -18 4 67 13 47 29 128 36 180 6 52 17 98 23 102 28 19 36 7 36
-49z m105 -40 c-5 -27 -9 -32 -19 -24 -11 9 -11 19 3 57 12 35 17 40 19 23 2
-12 1 -37 -3 -56z m-5 -89 c0 -8 -4 -12 -10 -9 -5 3 -10 10 -10 16 0 5 5 9 10
9 6 0 10 -7 10 -16z m0 -111 c0 -5 -16 -16 -35 -25 l-35 -18 16 25 c15 23 54
36 54 18z m867 -1348 c-7 -80 -25 -164 -38 -179 -4 -4 -16 9 -27 30 l-19 37
38 83 c22 45 39 87 39 93 0 6 3 11 6 11 4 0 4 -34 1 -75z"/>
<path d="M6133 5480 c0 -25 2 -35 4 -22 2 12 2 32 0 45 -2 12 -4 2 -4 -23z"/>
<path d="M1814 5488 c-12 -41 -103 -229 -153 -317 -33 -58 -50 -102 -54 -136
-3 -27 -12 -88 -21 -135 -50 -274 -68 -381 -86 -520 -72 -550 56 -1249 284
-1549 22 -30 69 -79 103 -109 34 -31 59 -60 56 -66 -3 -5 -1 -6 5 -2 7 4 12 2
12 -3 0 -6 7 -11 15 -11 8 0 48 -16 89 -36 256 -122 512 -21 668 266 20 36 39
76 43 89 4 14 25 47 46 73 36 46 59 111 45 125 -3 4 -6 -1 -6 -11 0 -26 -37
-92 -63 -113 -13 -10 -31 -40 -40 -68 -49 -141 -172 -287 -297 -350 -65 -33
-87 -39 -159 -43 -83 -5 -176 9 -216 32 -17 9 -6 12 60 17 109 8 172 37 236
108 91 101 119 183 119 350 0 136 -22 248 -74 380 -32 79 -45 95 -110 124
-121 56 -267 212 -341 364 -88 180 -124 301 -173 573 -47 262 -53 313 -59 530
l-6 205 52 122 c28 66 51 124 51 127 0 16 -19 3 -26 -16z m-119 -340 l-6 -23
13 22 c12 19 14 4 16 -108 4 -258 72 -667 148 -897 21 -65 116 -262 125 -262
5 0 9 -5 9 -10 0 -18 81 -122 139 -179 57 -55 164 -131 186 -131 36 0 91 -107
131 -254 33 -123 34 -306 3 -398 -51 -152 -148 -244 -282 -269 -116 -21 -193
8 -305 115 -180 170 -316 552 -348 974 -6 80 -5 92 9 92 9 0 26 13 38 30 12
16 25 27 29 25 4 -2 12 7 18 20 7 14 18 25 26 25 8 0 18 9 21 21 4 11 18 24
32 30 13 5 23 15 20 22 -2 6 0 23 5 37 13 35 20 210 8 210 -5 0 -10 -19 -12
-42 -2 -24 -4 -7 -4 37 0 80 -18 150 -36 139 -5 -3 -21 6 -36 21 -15 15 -37
34 -50 43 -16 10 -21 20 -16 35 3 11 1 22 -4 26 -7 4 -8 12 -2 21 8 13 10 12
10 -2 0 -9 4 -19 8 -22 4 -2 8 20 8 51 1 30 -2 49 -6 43 -6 -9 -9 -9 -14 1 -3
8 -4 0 -2 -18 4 -21 1 -33 -9 -37 -19 -7 -19 22 -1 117 38 193 59 294 63 312
3 11 8 36 13 55 12 57 22 80 31 74 5 -3 8 7 7 23 -2 27 7 53 18 53 3 0 3 -10
-1 -22z m-144 -700 c-3 -62 -11 -60 -11 2 0 29 3 50 7 46 4 -3 6 -25 4 -48z
m40 -55 c-12 -20 -14 -14 -5 12 4 9 9 14 11 11 3 -2 0 -13 -6 -23z"/>
<path d="M1690 5109 c0 -5 5 -7 10 -4 6 3 10 8 10 11 0 2 -4 4 -10 4 -5 0 -10
-5 -10 -11z"/>
<path d="M1656 5045 c-9 -26 -7 -32 5 -12 6 10 9 21 6 23 -2 3 -7 -2 -11 -11z"/>
<path d="M1766 4243 c-6 -14 -5 -15 5 -6 7 7 10 15 7 18 -3 3 -9 -2 -12 -12z"/>
<path d="M1766 4185 c-4 -15 -5 -30 -1 -33 3 -3 5 2 5 11 0 8 4 17 10 19 5 2
6 9 1 16 -6 10 -10 7 -15 -13z"/>
<path d="M1761 4064 c0 -11 3 -14 6 -6 3 7 2 16 -1 19 -3 4 -6 -2 -5 -13z"/>
<path d="M5315 5462 c-29 -61 -46 -102 -40 -102 6 0 66 132 62 136 -2 2 -12
-13 -22 -34z"/>
<path d="M5496 5435 c-9 -26 -7 -32 5 -12 6 10 9 21 6 23 -2 3 -7 -2 -11 -11z"/>
<path d="M2110 5327 c0 -52 4 -89 11 -93 8 -4 9 19 4 82 -4 49 -9 91 -11 93
-2 2 -4 -34 -4 -82z"/>
<path d="M5456 5345 c-9 -26 -7 -32 5 -12 6 10 9 21 6 23 -2 3 -7 -2 -11 -11z"/>
<path d="M5426 5273 c-6 -14 -5 -15 5 -6 7 7 10 15 7 18 -3 3 -9 -2 -12 -12z"/>
<path d="M711 5250 c0 -8 7 -44 14 -80 l14 -65 -5 65 c-4 36 -10 72 -15 80 -7
13 -8 13 -8 0z"/>
<path d="M5357 5125 c-24 -50 -20 -58 4 -12 11 22 19 41 17 43 -3 2 -12 -12
-21 -31z"/>
<path d="M4345 5140 c11 -5 34 -8 50 -8 29 0 29 0 5 8 -14 4 -36 8 -50 8 -23
1 -23 0 -5 -8z"/>
<path d="M750 5093 c0 -15 62 -154 67 -149 7 7 -30 111 -49 135 -10 13 -18 19
-18 14z"/>
<path d="M5711 5029 c-7 -22 -11 -43 -8 -45 2 -2 9 14 16 37 7 22 11 43 8 45
-2 2 -9 -14 -16 -37z"/>
<path d="M1573 5008 c-11 -13 -29 -39 -38 -58 -10 -19 -64 -111 -120 -205
-226 -378 -348 -607 -448 -843 -71 -167 -95 -232 -85 -232 3 0 17 33 33 73 73
191 184 418 299 610 25 43 46 81 46 84 0 3 14 25 30 50 17 24 30 50 30 56 0 7
13 28 29 47 15 19 31 45 35 58 4 12 14 22 22 22 8 0 14 8 14 19 0 25 25 47 36
30 4 -8 3 -9 -5 -5 -8 5 -10 0 -7 -18 3 -15 1 -24 -5 -21 -5 4 -9 2 -9 -4 0
-5 -8 -12 -18 -15 -14 -5 -17 -14 -14 -35 3 -20 -4 -36 -22 -57 -15 -17 -23
-22 -20 -11 3 9 1 17 -5 17 -15 0 -14 -43 2 -59 10 -11 9 -12 -2 -6 -10 6 -13
4 -9 -6 4 -10 -1 -15 -14 -16 -27 -2 -27 -3 -32 -49 -6 -64 -18 -104 -30 -104
-6 0 -12 -9 -12 -20 0 -14 5 -19 15 -15 10 4 11 2 4 -7 -21 -26 -33 -80 -22
-94 6 -7 10 -41 9 -76 -1 -74 4 -131 14 -147 4 -6 4 -11 0 -11 -3 0 -1 -7 6
-15 6 -8 9 -19 5 -25 -3 -5 -2 -10 3 -10 5 0 12 -9 15 -20 3 -14 14 -20 31
-20 26 0 26 -1 26 -77 0 -153 41 -377 98 -543 59 -168 172 -357 277 -462 61
-60 185 -141 185 -121 0 5 -25 22 -56 38 -138 72 -311 321 -389 562 -96 291
-108 530 -47 913 108 673 119 737 146 795 14 30 24 55 22 55 -1 0 -12 -10 -23
-22z m-85 -256 c2 -12 -1 -22 -7 -22 -6 0 -8 7 -5 15 4 8 1 15 -5 15 -6 0 -11
5 -11 11 0 20 25 3 28 -19z m-12 -69 c-11 -11 -17 4 -9 23 7 18 8 18 11 1 2
-10 1 -21 -2 -24z m-40 -48 c-9 -9 -16 -13 -16 -8 0 12 22 34 28 28 2 -2 -3
-11 -12 -20z m30 -7 c-9 -12 -16 -19 -16 -15 0 11 24 47 28 42 2 -2 -3 -14
-12 -27z"/>
<path d="M5291 4983 c-10 -26 -10 -27 4 -9 8 11 15 23 15 28 0 15 -7 8 -19
-19z"/>
<path d="M5660 4867 c-48 -142 -104 -296 -123 -337 -54 -119 -77 -174 -73
-178 8 -7 77 137 112 234 50 139 126 375 122 379 -2 2 -19 -42 -38 -98z"/>
<path d="M5252 4905 c-12 -25 -20 -45 -17 -45 7 0 47 81 43 86 -3 2 -14 -17
-26 -41z"/>
<path d="M6011 4894 c0 -11 3 -14 6 -6 3 7 2 16 -1 19 -3 4 -6 -2 -5 -13z"/>
<path d="M3410 4860 c34 -27 63 -26 31 0 -13 11 -31 20 -40 20 -12 0 -10 -5 9
-20z"/>
<path d="M5189 4789 c-17 -35 -47 -92 -66 -126 -19 -35 -32 -63 -30 -63 12 0
141 240 133 247 -3 3 -19 -24 -37 -58z"/>
<path d="M3480 4836 c0 -4 78 -56 85 -56 16 0 0 23 -27 40 -30 18 -58 26 -58
16z"/>
<path d="M5991 4784 c0 -11 3 -14 6 -6 3 7 2 16 -1 19 -3 4 -6 -2 -5 -13z"/>
<path d="M5981 4724 c0 -11 3 -14 6 -6 3 7 2 16 -1 19 -3 4 -6 -2 -5 -13z"/>
<path d="M5971 4674 c0 -11 3 -14 6 -6 3 7 2 16 -1 19 -3 4 -6 -2 -5 -13z"/>
<path d="M1366 4591 c-4 -7 -5 -15 -2 -18 9 -9 19 4 14 18 -4 11 -6 11 -12 0z"/>
<path d="M5946 4569 c-8 -42 0 -50 9 -9 4 17 5 34 2 36 -2 3 -7 -10 -11 -27z"/>
<path d="M5457 4495 c-39 -140 -40 -146 -13 -90 27 54 50 144 44 173 -2 9 -16
-28 -31 -83z"/>
<path d="M6793 4515 c24 -158 116 -520 167 -650 44 -114 38 -69 -14 98 -24 78
-47 160 -51 182 -4 22 -11 47 -15 55 -9 17 -31 116 -56 250 -17 87 -42 141
-31 65z"/>
<path d="M1315 4510 c-3 -5 -1 -10 4 -10 6 0 11 5 11 10 0 6 -2 10 -4 10 -3 0
-8 -4 -11 -10z"/>
<path d="M5925 4480 c-4 -17 -5 -34 -2 -36 2 -3 7 10 11 27 8 42 0 50 -9 9z"/>
<path d="M5911 4414 c0 -11 3 -14 6 -6 3 7 2 16 -1 19 -3 4 -6 -2 -5 -13z"/>
<path d="M5901 4374 c0 -11 3 -14 6 -6 3 7 2 16 -1 19 -3 4 -6 -2 -5 -13z"/>
<path d="M480 4359 c0 -5 -21 -9 -47 -9 -27 -1 -59 -7 -73 -15 -14 -8 -47 -15
-75 -16 -40 -1 -45 -3 -25 -9 25 -8 21 -10 -27 -15 -84 -8 -155 -25 -107 -25
16 0 17 -2 4 -10 -8 -5 -30 -10 -48 -10 -28 0 -35 -5 -44 -32 -10 -29 -12 -30
-25 -13 -11 16 -13 -2 -13 -124 l0 -144 68 7 c37 4 107 12 157 18 50 6 127 11
173 12 45 0 82 4 82 9 0 4 13 7 29 7 16 0 36 7 45 15 8 9 19 16 23 16 4 -1 8
7 9 17 0 26 16 75 27 90 16 20 17 112 2 112 -8 0 -16 18 -20 40 -5 30 -11 40
-23 39 -32 -3 -41 1 -47 20 -6 19 -45 37 -45 20z"/>
<path d="M5891 4334 c0 -11 3 -14 6 -6 3 7 2 16 -1 19 -3 4 -6 -2 -5 -13z"/>
<path d="M982 4163 c-67 -170 -193 -544 -189 -557 2 -6 24 52 50 129 56 172
117 342 163 458 20 49 34 91 31 93 -2 3 -27 -53 -55 -123z"/>
<path d="M5992 4080 c0 -14 2 -19 5 -12 2 6 2 18 0 25 -3 6 -5 1 -5 -13z"/>
<path d="M5981 4034 c0 -11 3 -14 6 -6 3 7 2 16 -1 19 -3 4 -6 -2 -5 -13z"/>
<path d="M5947 3908 c-15 -55 -26 -103 -24 -105 3 -2 17 42 32 97 15 55 26
103 23 105 -2 2 -16 -41 -31 -97z"/>
<path d="M5572 3970 c-12 -16 -22 -32 -22 -35 0 -3 -8 -18 -19 -33 -10 -15
-54 -81 -97 -147 -122 -187 -241 -328 -359 -424 -48 -40 -127 -72 -207 -86
-21 -3 -40 -11 -44 -16 -4 -8 3 -9 22 -6 86 16 126 18 118 6 -4 -7 21 7 57 31
139 96 317 299 460 527 53 83 123 213 116 213 -2 0 -13 -13 -25 -30z"/>
<path d="M18 3923 c12 -2 32 -2 45 0 12 2 2 4 -23 4 -25 0 -35 -2 -22 -4z"/>
<path d="M5350 3779 c-173 -168 -315 -294 -508 -452 l-142 -117 -63 -2 c-36
-1 -47 -3 -27 -5 65 -7 204 -34 304 -59 54 -14 100 -23 102 -21 4 4 -90 32
-161 47 -100 22 -135 33 -135 42 0 5 4 7 8 4 5 -3 21 7 38 21 16 14 56 46 89
71 77 59 94 73 114 93 9 8 64 56 123 107 145 125 437 412 418 411 -8 0 -80
-63 -160 -140z"/>
<path d="M6550 3904 c0 -16 41 -144 47 -144 3 0 2 17 -2 38 -10 60 -28 112
-37 112 -4 0 -8 -3 -8 -6z"/>
<path d="M5698 3789 c-40 -77 -44 -90 -23 -64 23 28 67 116 61 122 -2 3 -20
-24 -38 -58z"/>
<path d="M5902 3765 c-17 -37 -14 -45 4 -12 9 16 14 31 11 33 -2 2 -9 -7 -15
-21z"/>
<path d="M5842 3631 c-52 -107 -239 -413 -307 -502 -69 -92 -72 -96 -47 -74
13 10 45 49 73 86 99 134 355 581 332 578 -5 0 -27 -40 -51 -88z"/>
<path d="M852 3583 c-35 -130 -53 -215 -49 -232 2 -9 7 4 11 29 4 25 21 96 37
159 16 63 27 116 25 118 -2 2 -13 -31 -24 -74z"/>
<path d="M772 3553 c-6 -20 -7 -32 -2 -27 10 10 25 64 18 64 -3 0 -10 -16 -16
-37z"/>
<path d="M5438 3527 c-49 -41 -142 -103 -248 -167 -62 -37 -28 -37 43 0 106
56 280 190 266 205 -4 3 -31 -14 -61 -38z"/>
<path d="M4268 3408 c-52 -56 -222 -260 -258 -310 -40 -57 -35 -75 6 -21 15
21 31 40 34 43 3 3 48 57 100 120 52 63 109 131 127 150 31 33 40 50 27 50 -3
0 -20 -15 -36 -32z"/>
<path d="M732 3370 c0 -14 2 -19 5 -12 2 6 2 18 0 25 -3 6 -5 1 -5 -13z"/>
<path d="M721 3314 c0 -11 3 -14 6 -6 3 7 2 16 -1 19 -3 4 -6 -2 -5 -13z"/>
<path d="M790 3320 c0 -7 -7 -58 -15 -114 -23 -161 -24 -180 -31 -391 -8 -223
6 -432 37 -585 20 -103 18 -61 -8 120 -24 171 -21 560 6 794 11 99 19 182 16
184 -3 3 -5 0 -5 -8z"/>
<path d="M692 3183 c-7 -40 -12 -82 -11 -95 1 -13 7 15 15 61 8 47 13 90 11
95 -2 6 -9 -22 -15 -61z"/>
<path d="M6735 3150 c17 -56 175 -351 175 -327 0 7 -169 338 -178 347 -2 3 -1
-6 3 -20z"/>
<path d="M6360 3115 c13 -14 28 -25 33 -25 6 0 0 11 -13 25 -13 14 -28 25 -33
25 -6 0 0 -11 13 -25z"/>
<path d="M5050 3110 c34 -11 60 -11 35 0 -11 5 -29 8 -40 8 -16 0 -15 -2 5 -8z"/>
<path d="M5977 3104 c-4 -4 -64 -10 -134 -13 -108 -6 -136 -11 -177 -31 -43
-22 -46 -25 -25 -28 13 -2 47 -9 76 -17 47 -11 53 -11 71 5 30 28 73 47 124
55 26 4 65 13 85 21 33 11 34 13 12 14 -14 0 -29 -3 -32 -6z m-201 -50 c-41
-15 -53 -13 -41 5 3 6 23 11 43 10 l37 0 -39 -15z"/>
<path d="M5118 3093 c7 -3 16 -2 19 1 4 3 -2 6 -13 5 -11 0 -14 -3 -6 -6z"/>
<path d="M6425 3070 c27 -12 43 -12 25 0 -8 5 -22 9 -30 9 -10 0 -8 -3 5 -9z"/>
<path d="M5218 3063 c6 -2 18 -2 25 0 6 3 1 5 -13 5 -14 0 -19 -2 -12 -5z"/>
<path d="M665 3000 c-4 -34 -5 -63 -2 -66 3 -3 8 22 12 56 4 34 5 63 2 66 -3
3 -8 -22 -12 -56z"/>
<path d="M3505 3050 c4 -6 11 -8 16 -5 14 9 11 15 -7 15 -8 0 -12 -5 -9 -10z"/>
<path d="M5268 3053 c7 -3 16 -2 19 1 4 3 -2 6 -13 5 -11 0 -14 -3 -6 -6z"/>
<path d="M5308 3043 c7 -3 16 -2 19 1 4 3 -2 6 -13 5 -11 0 -14 -3 -6 -6z"/>
<path d="M5353 3033 c9 -2 23 -2 30 0 6 3 -1 5 -18 5 -16 0 -22 -2 -12 -5z"/>
<path d="M8184 3008 c-98 -78 -214 -286 -214 -385 0 -52 -22 -68 -69 -52 -46
16 -59 7 -54 -36 2 -24 0 -34 -7 -30 -13 8 -75 -57 -92 -97 -7 -15 -16 -28
-21 -28 -4 0 -7 -6 -6 -12 4 -18 -11 -112 -19 -125 -11 -16 -75 -53 -94 -53
-9 0 -18 -4 -20 -9 -3 -8 -85 24 -98 38 -3 4 -22 15 -43 25 -21 11 -47 27 -57
35 -10 9 -35 30 -56 46 -114 90 -139 135 -61 108 63 -22 166 -17 276 12 113
31 211 73 211 92 0 17 4 18 -89 -22 -45 -19 -81 -32 -81 -30 0 2 -16 -3 -35
-11 -82 -34 -337 -25 -352 12 -3 8 -9 11 -14 8 -5 -3 -16 2 -25 10 -18 18 -34
21 -34 6 0 -5 7 -10 16 -10 8 0 12 -4 9 -10 -3 -5 1 -10 9 -10 10 0 13 -6 10
-15 -4 -9 0 -15 9 -15 10 0 14 -7 10 -22 -4 -19 -3 -20 6 -8 7 10 11 11 11 3
0 -7 18 -31 40 -54 22 -22 39 -44 39 -47 -1 -4 -1 -14 0 -22 1 -12 4 -11 12 3
10 17 12 17 33 -5 12 -13 32 -40 45 -60 23 -39 38 -51 27 -22 -5 12 -1 14 17
9 12 -4 33 -14 47 -24 33 -23 62 -35 79 -32 7 1 10 -2 6 -8 -3 -6 -2 -11 4
-11 5 0 34 -22 63 -50 41 -39 57 -48 76 -43 48 12 79 -61 85 -197 2 -63 11
-127 22 -160 20 -61 56 -105 73 -88 18 18 22 -9 37 -263 3 -48 11 -78 30 -110
14 -24 28 -52 32 -61 3 -10 9 -18 14 -18 5 0 9 -9 9 -20 0 -11 5 -20 10 -20 6
0 10 -9 10 -19 0 -11 3 -22 8 -24 13 -8 52 12 58 30 3 10 10 26 15 35 5 10 9
24 9 33 0 9 6 12 15 9 8 -4 15 -1 15 5 0 6 9 11 19 11 10 0 21 7 25 15 3 8 12
15 20 15 8 0 16 5 18 12 7 20 29 -2 49 -48 15 -34 48 -201 49 -249 0 -5 4 -4
9 3 4 8 12 12 17 10 16 -6 16 51 0 84 -9 17 -16 39 -16 49 0 10 -4 20 -9 23
-5 4 -12 25 -16 49 -4 23 -22 86 -41 140 -18 53 -31 104 -29 112 3 8 8 23 12
33 3 9 7 24 7 32 1 8 8 15 17 15 8 0 31 15 50 33 18 17 40 30 47 27 7 -3 12 5
12 20 0 51 129 155 193 155 46 0 98 -34 183 -122 l81 -84 95 -3 c91 -2 94 -2
96 21 1 13 -2 34 -7 48 -4 14 -19 58 -32 98 -13 39 -27 72 -31 72 -4 0 -8 5
-8 11 0 6 -11 24 -25 41 -27 32 -32 80 -15 152 5 24 5 46 0 55 -5 9 -10 12
-10 6 -1 -19 -20 20 -19 40 l0 20 9 -20 c8 -18 9 -17 9 8 1 21 -5 30 -25 37
-14 6 -22 14 -19 20 3 5 -7 15 -22 22 -29 13 -63 45 -63 60 0 4 -5 8 -11 8
-11 0 -39 24 -39 34 0 8 -61 66 -71 66 -5 0 -9 4 -9 8 0 17 -43 53 -57 48 -8
-4 -27 6 -44 23 -16 16 -43 32 -59 36 -17 4 -36 15 -43 26 -6 10 -17 19 -24
19 -6 0 -13 5 -15 12 -4 10 -20 14 -65 17 -7 1 -13 12 -13 26 0 14 -5 25 -12
25 -6 0 -9 3 -5 6 6 7 -45 54 -59 54 -5 0 -17 7 -27 14 -16 13 -16 14 0 27 15
12 16 12 10 -3 -9 -25 0 -22 14 3 8 15 8 19 0 15 -14 -9 -14 17 -1 30 6 6 -19
1 -55 -11 -36 -13 -69 -25 -72 -29 -12 -12 -25 -6 -20 8 3 8 -1 16 -8 18 -11
2 -4 20 25 66 22 34 40 65 40 68 0 2 16 27 36 55 19 28 33 54 30 57 -7 7 -59
-51 -78 -88 -7 -14 -19 -29 -25 -33 -7 -4 -13 -13 -13 -18 0 -6 -15 -30 -34
-55 -19 -25 -37 -51 -39 -57 -2 -7 -7 -10 -10 -7 -17 16 75 195 138 265 38 42
79 95 73 95 -2 0 -21 -15 -44 -32z m-434 -888 c0 -5 -5 -10 -11 -10 -5 0 -7 5
-4 10 3 6 8 10 11 10 2 0 4 -4 4 -10z m420 -880 c9 -17 8 -20 -9 -20 -14 0
-18 5 -14 20 3 11 7 20 9 20 2 0 8 -9 14 -20z"/>
<path d="M5485 3005 c50 -14 96 -23 102 -20 7 2 12 -1 10 -7 -1 -6 4 -13 12
-16 10 -3 12 0 8 12 -5 12 0 16 16 17 36 1 -92 26 -168 32 l-70 6 90 -24z"/>
<path d="M5660 2981 c0 -5 14 -14 30 -21 17 -7 30 -16 30 -21 0 -5 6 -9 13 -9
7 0 33 -15 57 -32 24 -18 41 -27 36 -20 -9 15 -146 112 -158 112 -4 0 -8 -4
-8 -9z"/>
<path d="M6710 2971 c0 -7 18 -30 41 -52 47 -45 129 -113 129 -107 0 2 -38 42
-85 87 -47 46 -85 78 -85 72z"/>
<path d="M3335 2930 c-4 -6 -11 -7 -17 -4 -7 4 -8 2 -4 -4 7 -12 36 -5 36 9 0
12 -7 11 -15 -1z"/>
<path d="M5690 2926 c0 -3 9 -10 20 -16 11 -6 20 -8 20 -6 0 3 -9 10 -20 16
-11 6 -20 8 -20 6z"/>
<path d="M653 2845 c0 -22 2 -30 4 -17 2 12 2 30 0 40 -3 9 -5 -1 -4 -23z"/>
<path d="M3220 2855 c-8 -9 -8 -15 -2 -15 12 0 26 19 19 26 -2 2 -10 -2 -17
-11z"/>
<path d="M3245 2830 c-3 -5 -2 -10 4 -10 5 0 13 5 16 10 3 6 2 10 -4 10 -5 0
-13 -4 -16 -10z"/>
<path d="M643 2760 c0 -25 2 -35 4 -22 2 12 2 32 0 45 -2 12 -4 2 -4 -23z"/>
<path d="M644 2595 c0 -66 1 -92 3 -57 2 34 2 88 0 120 -2 31 -3 3 -3 -63z"/>
<path d="M8293 2693 c9 -2 25 -2 35 0 9 3 1 5 -18 5 -19 0 -27 -2 -17 -5z"/>
<path d="M8428 2673 c7 -3 16 -2 19 1 4 3 -2 6 -13 5 -11 0 -14 -3 -6 -6z"/>
<path d="M8525 2640 c-3 -5 1 -10 9 -10 8 0 31 -9 50 -21 20 -12 36 -17 36
-12 0 8 -70 53 -83 53 -3 0 -9 -4 -12 -10z"/>
<path d="M7040 2611 c0 -13 77 -94 81 -85 2 5 -15 28 -38 50 -24 23 -43 39
-43 35z"/>
<path d="M8630 2584 c0 -10 3 -14 7 -11 3 4 17 0 30 -8 13 -9 23 -12 23 -7 0
4 -13 16 -30 25 -28 17 -30 17 -30 1z"/>
<path d="M8730 2525 c7 -8 20 -15 29 -15 9 0 22 -5 29 -12 7 -7 12 -8 12 -2 0
6 -16 18 -35 27 -44 21 -51 21 -35 2z"/>
<path d="M642 2400 c0 -14 2 -19 5 -12 2 6 2 18 0 25 -3 6 -5 1 -5 -13z"/>
<path d="M652 2300 c0 -14 2 -19 5 -12 2 6 2 18 0 25 -3 6 -5 1 -5 -13z"/>
<path d="M7312 2260 c0 -14 2 -19 5 -12 2 6 2 18 0 25 -3 6 -5 1 -5 -13z"/>
<path d="M661 2224 c0 -21 4 -48 9 -59 6 -13 7 -1 3 35 -7 66 -13 78 -12 24z"/>
<path d="M3479 2118 c-3 -22 -1 -34 4 -29 5 5 7 21 5 37 -3 27 -4 26 -9 -8z"/>
<path d="M677 2110 c27 -154 72 -263 169 -407 76 -111 82 -123 61 -123 -10 0
-21 -21 -33 -57 -21 -68 -23 -72 -33 -54 -7 10 -11 8 -16 -9 -4 -13 -16 -33
-26 -44 -11 -11 -17 -27 -13 -38 3 -10 1 -18 -4 -18 -5 0 -15 -14 -22 -30 -16
-39 -94 -95 -144 -104 -29 -6 -36 -10 -25 -17 11 -7 10 -9 -6 -10 -11 -1 -23
-1 -26 -1 -25 3 -134 -19 -139 -29 -5 -8 -51 -12 -136 -14 -71 -1 -164 -3
-206 -4 l-78 -1 0 -234 0 -233 56 1 c32 0 48 3 37 7 -15 7 -14 8 5 8 13 1 20
5 17 11 -3 6 5 10 19 10 14 0 28 5 31 10 3 6 18 10 33 10 15 0 38 7 50 16 12
8 26 12 32 9 5 -3 17 -2 27 3 44 22 87 31 99 21 7 -5 15 -6 18 -1 3 5 33 10
68 11 34 1 66 7 70 14 8 14 549 32 557 19 10 -14 72 -32 112 -32 28 0 37 -4
33 -14 -4 -10 9 -15 45 -20 28 -4 51 -10 51 -14 0 -4 14 -16 31 -26 54 -32
259 -28 259 5 0 4 13 15 29 24 20 10 31 24 33 42 2 17 9 28 18 28 10 0 14 9
13 28 -1 18 3 27 12 27 16 0 21 17 29 103 4 35 2 57 -4 57 -6 0 -10 34 -10 83
0 56 3 77 10 67 16 -24 12 77 -5 145 -24 95 -34 113 -68 125 -26 9 -29 13 -17
21 12 9 12 10 -3 5 -12 -4 -27 3 -42 20 -14 15 -31 24 -39 21 -8 -3 -31 3 -52
14 -21 10 -48 19 -60 19 -12 0 -24 5 -26 12 -3 7 -32 12 -74 14 -70 2 -173 16
-252 34 -69 16 -98 13 -110 -12 -11 -21 -11 -21 -7 7 3 17 2 24 -1 18 -3 -7
-11 -13 -16 -13 -6 0 -9 3 -5 6 3 3 -6 18 -20 33 -28 29 -107 188 -118 239 -8
38 -35 94 -35 74 0 -24 40 -176 52 -197 10 -18 10 -19 -5 -6 -11 9 -17 10 -17
2 0 -6 -5 -11 -10 -11 -6 0 -9 10 -7 23 2 12 2 16 0 10 -5 -15 -23 -18 -23 -4
0 4 -11 24 -24 44 -13 19 -27 46 -31 58 -4 13 -11 26 -14 29 -11 8 -39 91 -47
135 -4 22 -13 51 -20 65 -13 24 -13 24 -7 -10z m400 -506 c-3 -3 -12 -4 -19
-1 -8 3 -5 6 6 6 11 1 17 -2 13 -5z m690 -631 c-3 -10 -5 -2 -5 17 0 19 2 27
5 18 2 -10 2 -26 0 -35z"/>
<path d="M802 2100 c0 -37 25 -129 27 -95 0 11 -6 45 -14 75 -11 48 -13 50
-13 20z"/>
<path d="M7450 2110 c0 -5 5 -10 11 -10 5 0 7 5 4 10 -3 6 -8 10 -11 10 -2 0
-4 -4 -4 -10z"/>
<path d="M3100 1840 c0 -5 5 -10 11 -10 5 0 7 5 4 10 -3 6 -8 10 -11 10 -2 0
-4 -4 -4 -10z"/>
<path d="M8252 1415 c0 -16 2 -22 5 -12 2 9 2 23 0 30 -3 6 -5 -1 -5 -18z"/>
<path d="M178 1173 c12 -2 32 -2 45 0 12 2 2 4 -23 4 -25 0 -35 -2 -22 -4z"/>
<path d="M7020 1056 c0 -17 14 -29 23 -20 8 8 -3 34 -14 34 -5 0 -9 -6 -9 -14z"/>
<path d="M8364 939 c-3 -6 -1 -16 5 -22 8 -8 11 -5 11 11 0 24 -5 28 -16 11z"/>
<path d="M8376 863 c4 -16 13 -44 20 -63 12 -33 13 -33 13 -8 1 15 -3 30 -9
33 -5 3 -10 19 -10 36 0 16 -5 29 -10 29 -6 0 -8 -11 -4 -27z"/>
<path d="M8441 674 c0 -11 3 -14 6 -6 3 7 2 16 -1 19 -3 4 -6 -2 -5 -13z"/>
<path d="M8462 575 c0 -16 2 -22 5 -12 2 9 2 23 0 30 -3 6 -5 -1 -5 -18z"/>
<path d="M8117 553 c-4 -3 -7 -22 -7 -42 0 -41 -28 -199 -60 -341 -12 -52 -24
-112 -27 -133 l-6 -37 40 0 40 0 9 84 c5 46 6 82 2 80 -13 -8 -8 29 7 56 16
27 20 54 5 30 -17 -27 -18 -6 -5 75 12 77 20 235 12 235 -2 0 -7 -3 -10 -7z"/>
<path d="M6947 529 c-26 -37 -20 -61 25 -99 23 -19 38 -28 34 -21 -5 7 -8 33
-8 56 1 28 -5 52 -17 66 l-18 22 -16 -24z"/>
<path d="M4240 530 c0 -5 5 -10 10 -10 6 0 10 5 10 10 0 6 -4 10 -10 10 -5 0
-10 -4 -10 -10z"/>
<path d="M8578 533 c12 -2 32 -2 45 0 12 2 2 4 -23 4 -25 0 -35 -2 -22 -4z"/>
<path d="M8578 513 c12 -2 32 -2 45 0 12 2 2 4 -23 4 -25 0 -35 -2 -22 -4z"/>
<path d="M8578 493 c12 -2 32 -2 45 0 12 2 2 4 -23 4 -25 0 -35 -2 -22 -4z"/>
<path d="M8557 465 c6 -17 25 -15 31 3 2 7 -5 12 -17 12 -14 0 -19 -5 -14 -15z"/>
<path d="M8640 440 c0 -36 -2 -40 -25 -40 -22 0 -25 -4 -25 -39 0 -22 5 -41
13 -44 9 -4 9 -7 0 -18 -11 -11 -16 -9 -28 7 -9 13 -14 14 -15 5 0 -11 -3 -11
-15 -1 -13 11 -14 10 -8 -6 3 -10 10 -21 14 -24 5 -3 9 -38 10 -78 2 -61 -1
-75 -17 -87 -10 -8 -27 -12 -36 -9 -17 5 -22 -4 -33 -68 l-6 -38 267 0 267 0
-23 24 c-12 14 -35 28 -51 31 -16 4 -29 11 -29 17 0 5 -9 22 -19 36 -10 15
-19 30 -20 35 -1 16 -18 39 -27 35 -5 -1 -15 17 -23 42 -8 25 -20 51 -28 58
-7 7 -13 20 -13 28 0 8 -9 14 -19 14 -17 0 -19 5 -14 34 6 36 -12 66 -39 66
-19 0 -38 21 -38 42 0 10 -4 18 -10 18 -5 0 -10 -18 -10 -40z m80 -56 c0 -14
-3 -14 -15 -4 -8 7 -15 14 -15 16 0 2 7 4 15 4 8 0 15 -7 15 -16z m77 -166
c-3 -8 -6 -5 -6 6 -1 11 2 17 5 13 3 -3 4 -12 1 -19z"/>
<path d="M5807 438 c-60 -135 -71 -158 -79 -158 -4 0 -8 -10 -8 -22 0 -17 -3
-19 -9 -10 -6 10 -10 4 -15 -18 -8 -42 -32 -34 -28 8 4 41 -21 44 -37 5 -15
-37 -31 -137 -31 -195 0 -46 1 -48 29 -48 25 0 30 5 34 28 l4 27 2 -27 c1 -32
31 -40 31 -8 0 11 -4 20 -10 20 -19 0 -10 41 30 125 22 47 40 87 40 91 0 3 16
38 35 78 39 81 54 136 37 136 -6 0 -18 -15 -25 -32z"/>
<path d="M8490 460 c0 -5 5 -10 11 -10 5 0 7 5 4 10 -3 6 -8 10 -11 10 -2 0
-4 -4 -4 -10z"/>
<path d="M8541 445 c1 -19 18 -51 18 -35 0 8 -4 22 -9 30 -5 8 -9 11 -9 5z"/>
<path d="M8500 425 c0 -8 4 -15 10 -15 5 0 7 7 4 15 -4 8 -8 15 -10 15 -2 0
-4 -7 -4 -15z"/>
<path d="M8521 384 c0 -11 3 -14 6 -6 3 7 2 16 -1 19 -3 4 -6 -2 -5 -13z"/>
<path d="M7801 188 c-7 -29 -15 -83 -18 -120 -5 -59 -4 -68 11 -68 11 0 16 9
17 33 0 17 4 67 8 110 8 94 -1 117 -18 45z"/>
<path d="M1071 177 c-60 -37 -103 -86 -126 -140 -14 -33 -14 -37 0 -37 8 0 15
8 15 19 0 10 8 25 17 32 15 13 16 11 10 -21 -3 -19 -3 -29 0 -22 4 10 8 10 18
2 11 -9 16 -4 24 27 6 21 27 64 46 97 20 32 34 60 33 62 -2 1 -19 -7 -37 -19z
m-14 -41 c-7 -14 -13 -23 -15 -21 -7 6 9 45 18 45 4 0 3 -11 -3 -24z m-40 -61
c-6 -7 -15 -11 -19 -8 -14 8 -8 19 12 20 16 1 17 -1 7 -12z"/>
<path d="M5735 160 c3 -5 8 -10 11 -10 2 0 4 5 4 10 0 6 -5 10 -11 10 -5 0 -7
-4 -4 -10z"/>
<path d="M5710 112 c0 -5 7 -16 16 -23 14 -12 16 -11 13 5 -4 20 -29 35 -29
18z"/>
<path d="M7610 61 c-17 -33 -12 -61 10 -61 17 0 20 7 20 40 0 43 -13 52 -30
21z"/>
<path d="M8256 34 c-4 -14 -5 -29 -2 -31 3 -3 8 7 12 21 3 15 4 29 1 32 -2 3
-8 -7 -11 -22z"/>
</g>
</svg>
